<svg xmlns="http://www.w3.org/2000/svg" width="85.066" height="85.066" viewBox="0 0 85.066 85.066"><g transform="translate(-137.965 -170.965)"><path d="M168.123,177.9h24.751a5.928,5.928,0,0,1,4.2,1.739l17.291,17.291a5.939,5.939,0,0,1,1.738,4.2v24.751a5.927,5.927,0,0,1-1.738,4.2L197.07,247.36a5.931,5.931,0,0,1-4.2,1.738H168.123a5.927,5.927,0,0,1-4.2-1.738l-17.291-17.29a5.932,5.932,0,0,1-1.739-4.2V201.123a5.928,5.928,0,0,1,1.739-4.2l17.29-17.291A5.932,5.932,0,0,1,168.123,177.9Z" fill="#ef4444" stroke="#ef4444" stroke-miterlimit="10" stroke-width="2"/><path d="M180.5,222.4l-7.851,7.851a3.58,3.58,0,0,1-5.064,0l-3.836-3.835a3.58,3.58,0,0,1,0-5.064L171.6,213.5l-7.851-7.851a3.58,3.58,0,0,1,0-5.064l3.836-3.836a3.58,3.58,0,0,1,5.064,0L180.5,204.6l7.852-7.851a3.58,3.58,0,0,1,5.064,0l3.835,3.836a3.58,3.58,0,0,1,0,5.064L189.4,213.5l7.851,7.852a3.58,3.58,0,0,1,0,5.064l-3.835,3.835a3.58,3.58,0,0,1-5.064,0Z" fill="#fff"/><path d="M211.65,212.016h-2.966v2.966h2.966Z" fill="#ef4444"/><path d="M211.65,217.949h-2.966v2.967h2.966Z" fill="#ef4444"/><path d="M211.65,223.883h-2.966v2.966h2.966Z" fill="#ef4444"/><path d="M152.318,200.148h-2.966v2.967h2.966Z" fill="#ef4444"/><path d="M152.318,206.082h-2.966v2.967h2.966Z" fill="#ef4444"/><path d="M152.318,212.016h-2.966v2.966h2.966Z" fill="#ef4444"/><path d="M213.742,187.41l4.814,4.814a11.866,11.866,0,0,1,3.475,8.391v5.467" fill="none" stroke="#ef4444" stroke-miterlimit="10" stroke-width="2"/><path d="M207.789,181.457l3.263,3.263" fill="none" stroke="#ef4444" stroke-miterlimit="10" stroke-width="2"/><path d="M154.41,180.254l4.814-4.814a11.866,11.866,0,0,1,8.391-3.475h5.467" fill="none" stroke="#ef4444" stroke-miterlimit="10" stroke-width="2"/><path d="M148.457,186.205l3.263-3.264" fill="none" stroke="#ef4444" stroke-miterlimit="10" stroke-width="2"/><path d="M147.254,239.586l-4.814-4.813a11.867,11.867,0,0,1-3.475-8.391v-5.468" fill="none" stroke="#ef4444" stroke-miterlimit="10" stroke-width="2"/><path d="M153.205,245.537l-3.264-3.264" fill="none" stroke="#ef4444" stroke-miterlimit="10" stroke-width="2"/><path d="M206.586,246.742l-4.813,4.814a11.867,11.867,0,0,1-8.391,3.475h-5.468" fill="none" stroke="#ef4444" stroke-miterlimit="10" stroke-width="2"/><path d="M212.537,240.789l-3.264,3.263" fill="none" stroke="#ef4444" stroke-miterlimit="10" stroke-width="2"/></g></svg>