<svg xmlns="http://www.w3.org/2000/svg" xmlns:xlink="http://www.w3.org/1999/xlink" width="192" height="50" viewBox="0 0 192 50"><defs><linearGradient id="a" x1="0.903" y1="0.057" x2="-0.386" y2="0.73" gradientUnits="objectBoundingBox"><stop offset="0" stop-color="#00a0ff"/><stop offset="0.01" stop-color="#00a1ff"/><stop offset="0.26" stop-color="#00beff"/><stop offset="0.51" stop-color="#00d2ff"/><stop offset="0.76" stop-color="#00dfff"/><stop offset="1" stop-color="#00e3ff"/></linearGradient><linearGradient id="b" x1="1.072" y1="0.524" x2="-1.309" y2="0.524" gradientUnits="objectBoundingBox"><stop offset="0" stop-color="#ffe000"/><stop offset="0.41" stop-color="#ffbd00"/><stop offset="0.78" stop-color="orange"/><stop offset="1" stop-color="#ff9c00"/></linearGradient><linearGradient id="c" x1="0.861" y1="0.194" x2="-0.503" y2="1.959" gradientUnits="objectBoundingBox"><stop offset="0" stop-color="#ff3a44"/><stop offset="1" stop-color="#c31162"/></linearGradient><linearGradient id="d" x1="-0.189" y1="-0.524" x2="0.418" y2="0.267" gradientUnits="objectBoundingBox"><stop offset="0" stop-color="#32a071"/><stop offset="0.07" stop-color="#2da771"/><stop offset="0.48" stop-color="#15cf74"/><stop offset="0.8" stop-color="#06e775"/><stop offset="1" stop-color="#00f076"/></linearGradient></defs><g transform="translate(21 0)"><g transform="translate(-21 0)" stroke="#707070" stroke-width="1"><rect width="192" height="50" rx="8" stroke="none"/><rect x="0.5" y="0.5" width="191" height="49" rx="7.5" fill="none"/></g><g transform="translate(0 2)"><path d="M135.422,24.766A3.034,3.034,0,0,1,134.637,27a3.476,3.476,0,1,1-2.455-5.924,2.983,2.983,0,0,1,1.342.335,2.436,2.436,0,0,1,1,.785l-.557.557a2.084,2.084,0,0,0-1.8-.781,2.228,2.228,0,0,0-1.8.781,2.307,2.307,0,0,0-.781,1.9,2.307,2.307,0,0,0,.792,1.9,2.878,2.878,0,0,0,1.8.781,2.451,2.451,0,0,0,1.9-.781,1.85,1.85,0,0,0,.557-1.343h-2.458v-.9h3.239v.446Zm5.129-2.789h-3.018V24.1h2.792v.781h-2.792V27h3.018v.9h-3.914V21.185h3.912v.785Zm3.689,5.92h-.892v-5.92h-1.9v-.792h4.693v.785h-1.9v5.924Zm5.147-6.712h.893v6.7h-.893Zm4.689,6.712h-.892v-5.92h-1.9v-.792h4.581v.785h-1.9v5.924h.108ZM164.7,22.085a3.6,3.6,0,1,0,1,2.458,3.282,3.282,0,0,0-1-2.458Zm-.673,4.355a2.221,2.221,0,0,1-1.8.781,2.634,2.634,0,0,1-1.8-.781,2.3,2.3,0,0,1-.785-1.9,2.689,2.689,0,0,1,.785-1.9,2.221,2.221,0,0,1,1.8-.781,2.635,2.635,0,0,1,1.8.781,2.3,2.3,0,0,1,.785,1.9,2.689,2.689,0,0,1-.785,1.9Zm2.908,1.458V21.185h1.008l3.239,5.254V21.185h.9v6.708h-.9l-3.466-5.478v5.478h-.781Zm-8.386,9.836a4.7,4.7,0,0,0-4.808,4.8,4.772,4.772,0,0,0,4.808,4.808,4.7,4.7,0,0,0,4.8-4.808,4.636,4.636,0,0,0-4.8-4.8Zm0,7.6a2.915,2.915,0,0,1,0-5.812,2.7,2.7,0,0,1,2.681,2.9,2.776,2.776,0,0,1-2.681,2.909Zm-10.4-7.6a4.7,4.7,0,0,0-4.8,4.8,4.773,4.773,0,0,0,4.8,4.808,4.7,4.7,0,0,0,4.808-4.808,4.627,4.627,0,0,0-4.8-4.8Zm0,7.6a2.916,2.916,0,0,1,0-5.812,2.708,2.708,0,0,1,2.685,2.9,2.777,2.777,0,0,1-2.686,2.909Zm-12.4-6.154V41.2h4.8a4.24,4.24,0,0,1-1.114,2.573,4.952,4.952,0,0,1-3.689,1.439,5.2,5.2,0,0,1-5.254-5.363,5.273,5.273,0,0,1,5.254-5.366,5.535,5.535,0,0,1,3.689,1.439l1.439-1.439a7.162,7.162,0,0,0-5.039-2.012,7.382,7.382,0,1,0,.017,14.763A6.451,6.451,0,0,0,141,45.107a6.735,6.735,0,0,0,1.8-4.679,4.093,4.093,0,0,0-.115-1.231Zm50.743,1.565a4.347,4.347,0,0,0-4.024-3.018,4.5,4.5,0,0,0-4.474,4.8,4.679,4.679,0,0,0,4.681,4.81,4.581,4.581,0,0,0,3.912-2.127L185.019,44.1a2.728,2.728,0,0,1-2.346,1.343A2.428,2.428,0,0,1,180.326,44l6.37-2.685-.223-.557Zm-6.478,1.565a2.7,2.7,0,0,1,2.458-2.793,2.006,2.006,0,0,1,1.8,1.008l-4.247,1.8Zm-5.253,4.583h2.123V32.928h-2.123Zm-3.349-8.157a3.682,3.682,0,0,0-2.57-1.114,4.8,4.8,0,0,0-4.585,4.8,4.632,4.632,0,0,0,4.585,4.679,3.21,3.21,0,0,0,2.458-1.114h.108v.669a2.54,2.54,0,0,1-4.916,1.119l-1.8.781a4.61,4.61,0,0,0,4.247,2.8c2.458,0,4.47-1.439,4.47-4.921V37.956h-2Zm-2.469,6.6a2.916,2.916,0,0,1,0-5.812,2.681,2.681,0,0,1,2.57,2.9,2.686,2.686,0,0,1-2.568,2.908Zm27.273-12.409h-5.037V46.894H193.3V41.641h2.908a4.364,4.364,0,1,0,.011-8.719Zm.108,6.708H193.3v-4.81h3.023a2.455,2.455,0,0,1,2.458,2.346,2.558,2.558,0,0,1-2.456,2.463Zm12.848-2.015a3.749,3.749,0,0,0-3.685,2.123l1.907.781a1.98,1.98,0,0,1,1.9-1,2.107,2.107,0,0,1,2.239,1.8v.115a4.41,4.41,0,0,0-2.127-.561c-2.015,0-4.024,1.114-4.024,3.131a3.276,3.276,0,0,0,3.466,3.131,3.153,3.153,0,0,0,2.685-1.339h.108v1.114h2.018v-5.39a4.23,4.23,0,0,0-4.474-3.912Zm-.223,7.713c-.669,0-1.677-.338-1.677-1.231,0-1.114,1.231-1.439,2.239-1.439a4.345,4.345,0,0,1,1.9.446,2.609,2.609,0,0,1-2.46,2.223Zm11.734-7.378-2.346,6.035h-.108l-2.458-6.035h-2.231l3.685,8.494L215.1,51.125h2.124l5.7-13.172ZM201.9,46.894h2.124V32.928H201.9Z" transform="translate(-82.431 -13.364)" fill="#fff"/><path d="M32.246,23.06a2.2,2.2,0,0,0-.45,1.565v24.7a2.224,2.224,0,0,0,.561,1.565l.108.108L46.324,37.145v-.223Z" transform="translate(-20.621 -14.678)" fill="url(#a)"/><path d="M76.458,58.341,71.88,53.756v-.335l4.578-4.581.108.108,5.478,3.131c1.565.893,1.565,2.346,0,3.239Z" transform="translate(-46.284 -31.18)" fill="url(#b)"/><path d="M51.724,66.609,47.046,61.93,33.06,75.887c.557.557,1.339.557,2.346.108L51.724,66.6" transform="translate(-21.435 -39.558)" fill="url(#c)"/><path d="M51.724,31.687,35.406,22.409a1.807,1.807,0,0,0-2.346.115L47.031,36.38,51.71,31.7Z" transform="translate(-21.435 -14.026)" fill="url(#d)"/></g><path d="M51.634,74.62l-16.2,9.167a1.824,1.824,0,0,1-2.231,0L33.1,83.9l.108.108a1.824,1.824,0,0,0,2.231,0Z" transform="translate(-21.46 -47.681)" opacity="0.2"/><path d="M32.246,75.642a2.2,2.2,0,0,1-.45-1.565v.108a2.224,2.224,0,0,0,.561,1.565v-.108Zm24.141-12.3L50.8,66.476l.108.108,5.478-3.131A1.857,1.857,0,0,0,57.5,61.891c0,.557-.45,1.008-1.114,1.45Z" transform="translate(-20.621 -39.533)" opacity="0.12"/><path d="M34.606,22.474,56.4,34.88c.669.446,1.114.893,1.114,1.439A1.869,1.869,0,0,0,56.4,34.753l-21.8-12.4c-1.565-.893-2.8-.223-2.8,1.565v.108c0-1.677,1.231-2.458,2.8-1.562Z" transform="translate(-20.635 -13.976)" fill="#fff" opacity="0.25"/></g></svg>