<svg xmlns="http://www.w3.org/2000/svg" xmlns:xlink="http://www.w3.org/1999/xlink" width="125.283" height="122.345" viewBox="0 0 125.283 122.345"><defs><clipPath id="a"><path d="M-1590.154,314.659s-51.393-3.557-57.573-27.2,7.516-26.859,12.194-40.1-16.537-21.052-2.339-39.07,35.137-18.332,43.96-9.846,18.995-5.186,35.373,2.514,20.387,23.26,15.209,35.413,16.055,23.775,18.718,37.555S-1545.984,320.734-1590.154,314.659Z" transform="translate(1649.301 -193.053)" fill="none"/></clipPath></defs><g transform="translate(1649.302 -193.053)"><g transform="translate(-1649.302 193.053)"><path d="M-1590.154,314.659s-51.393-3.557-57.573-27.2,7.516-26.859,12.194-40.1-16.537-21.052-2.339-39.07,35.137-18.332,43.96-9.846,18.995-5.186,35.373,2.514,20.387,23.26,15.209,35.413,16.055,23.775,18.718,37.555S-1545.984,320.734-1590.154,314.659Z" transform="translate(1649.302 -193.053)" fill="#e7f4fc"/><path d="M-441.175,729.631a1.051,1.051,0,0,0-1.035-.775,1.124,1.124,0,0,0-.268.032,1.573,1.573,0,0,0-1.417-.849,1.644,1.644,0,0,0-.465.066,1.954,1.954,0,0,0-1.651-.877,1.926,1.926,0,0,0-1.812,1.194,1.38,1.38,0,0,0-.643-.157,1.285,1.285,0,0,0-1.323,1.244,1.181,1.181,0,0,0,.006.121Z" transform="translate(544.362 -685.113)" fill="#fff"/><path d="M-760.884,312.648a2.744,2.744,0,0,0-2.7-2.024,2.942,2.942,0,0,0-.7.084,4.1,4.1,0,0,0-3.7-2.215,4.319,4.319,0,0,0-1.215.173,5.1,5.1,0,0,0-4.311-2.29,5.027,5.027,0,0,0-4.731,3.118,3.607,3.607,0,0,0-1.679-.41,3.356,3.356,0,0,0-3.453,3.249,3.076,3.076,0,0,0,.017.315Z" transform="translate(851.647 -297.441)" fill="#fff"/><path d="M-1491.339,577.276a2.3,2.3,0,0,0-2.262-1.694,2.468,2.468,0,0,0-.586.07,3.435,3.435,0,0,0-3.1-1.854,3.609,3.609,0,0,0-1.017.145,4.269,4.269,0,0,0-3.608-1.917,4.207,4.207,0,0,0-3.96,2.609,3.018,3.018,0,0,0-1.4-.343,2.808,2.808,0,0,0-2.89,2.719,2.623,2.623,0,0,0,.014.264Z" transform="translate(1521.132 -542.147)" fill="#fff"/><path d="M-1647.707,762.282c-1.058-5.036,6.926-6.728,8.212-1.74a7.324,7.324,0,0,1,.214,1.517c.248,6-3.607,12.523-7.71,11.424s-1.741-5.194-.5-7.651C-1646.909,764.685-1647.434,763.581-1647.707,762.282Z" transform="translate(1649.302 -713.038)" fill="#e7f4fc"/><path d="M-241.595,675.56a4.682,4.682,0,0,0-5.781,2.583,19.489,19.489,0,0,0-1.539,6.136c-.128,3.75,1.457,11.8,7.517,13.784s9.676-3.254,5.642-9.319C-237.479,686.152-236.619,677.194-241.595,675.56Z" transform="translate(359.332 -637.3)" fill="#e7f4fc"/><path d="M-536.428,610.285a2.173,2.173,0,0,1,2.141-1.6,2.328,2.328,0,0,1,.555.067,3.251,3.251,0,0,1,2.929-1.754,3.416,3.416,0,0,1,.962.137,4.04,4.04,0,0,1,3.414-1.814,3.981,3.981,0,0,1,3.747,2.469,2.856,2.856,0,0,1,1.329-.325,2.658,2.658,0,0,1,2.735,2.573c0,.084,0,.167-.013.25Z" transform="translate(624.17 -572.814)" fill="#fff"/><path d="M-1279.649,265.847a1.555,1.555,0,0,1,1.532-1.147,1.664,1.664,0,0,1,.4.048,2.327,2.327,0,0,1,2.1-1.255,2.446,2.446,0,0,1,.689.1,2.89,2.89,0,0,1,2.443-1.3,2.85,2.85,0,0,1,2.682,1.767,2.045,2.045,0,0,1,.951-.232,1.9,1.9,0,0,1,1.957,1.841c0,.06,0,.12-.009.179Z" transform="translate(1308.794 -256.833)" fill="#fff"/><path d="M-452.479,997.2s-.268,2.485-2.352,2.657c2.084.172,2.352,2.657,2.352,2.657s.268-2.485,2.352-2.657C-452.211,999.688-452.479,997.2-452.479,997.2Z" transform="translate(549.007 -933.801)" fill="#fff"/><path d="M-491.227,498.017s-.192,1.783-1.688,1.906c1.5.123,1.688,1.906,1.688,1.906s.192-1.783,1.688-1.906C-491.035,499.8-491.227,498.017-491.227,498.017Z" transform="translate(584.088 -473.973)" fill="#fff"/><path d="M-1306,376.813s-.121,1.121-1.061,1.2c.94.078,1.061,1.2,1.061,1.2s.121-1.121,1.061-1.2C-1305.884,377.934-1306,376.813-1306,376.813Z" transform="translate(1334.049 -362.325)" fill="#fff"/><path d="M-1418.273,764.258s-.268,2.485-2.352,2.657c2.084.172,2.352,2.657,2.352,2.657s.268-2.485,2.353-2.657C-1418,766.743-1418.273,764.258-1418.273,764.258Z" transform="translate(1438.655 -719.222)" fill="#fff"/><path d="M-373.232,910s-.177,1.644-1.556,1.758c1.379.114,1.556,1.758,1.556,1.758s.177-1.644,1.556-1.758C-373.055,911.648-373.232,910-373.232,910Z" transform="translate(475.275 -853.477)" fill="#fff"/><path d="M-420.785,437.687s-.1.9-.849.959c.752.062.849.959.849.959s.1-.9.849-.959C-420.688,438.584-420.785,437.687-420.785,437.687Z" transform="translate(518.427 -418.399)" fill="#fff"/><path d="M-1353.352,690.515s-.177,1.644-1.556,1.758c1.379.114,1.556,1.758,1.556,1.758s.177-1.644,1.556-1.758C-1353.174,692.159-1353.352,690.515-1353.352,690.515Z" transform="translate(1378.119 -651.294)" fill="#fff"/><path d="M-465.378,847.4s-.079.735-.7.786c.617.051.7.786.7.786s.079-.736.7-.786C-465.3,848.132-465.378,847.4-465.378,847.4Z" transform="translate(559.363 -795.806)" fill="#fff"/><path d="M-1375.445,887.339s-.079.735-.7.786c.617.051.7.786.7.786s.079-.736.7-.786C-1375.365,888.074-1375.445,887.339-1375.445,887.339Z" transform="translate(1397.678 -832.599)" fill="#fff"/><path d="M-1291.514,453.149s-.156,1.453-1.375,1.553c1.218.1,1.375,1.553,1.375,1.553s.157-1.453,1.375-1.553C-1291.357,454.6-1291.514,453.149-1291.514,453.149Z" transform="translate(1320.99 -432.642)" fill="#fff"/></g><g transform="translate(-1649.302 193.053)"><g transform="translate(0 0)" clip-path="url(#a)"><g transform="translate(-2.887 7.493)"><g transform="translate(43.359)"><path d="M-800.622,703.84h-28.847l-4.414-12.289a8.547,8.547,0,0,0-4.5-4.8,21.517,21.517,0,0,1-7.153-5.365,49.691,49.691,0,0,1-7.615-11.574l16.767-.082s-1.509-9.379,6.824-21.836a7.05,7.05,0,0,0,1.159-4.531l-.79-9.085s-5.663-6.328-2.188-14.18c0,0,3.322-4.6,4.64-2.916,0,0,10.036,23.9,10.949,27.452s2.132,5.787.914,16.955a67.634,67.634,0,0,0-.434,7.449,26.433,26.433,0,0,0,2.541,11.252Z" transform="translate(875.451 -590.892)" fill="#fb9390"/><path d="M-736.272,1285.075l-.119-.056-.069-.033-.111-.054-.075-.037-.109-.055-.078-.039-.113-.058-.075-.039-.168-.089-.094-.051-.108-.059-.1-.055-.092-.052-.107-.061-.086-.05-.113-.066-.078-.047-.123-.074-.059-.036q-.237-.144-.48-.3l-.04-.026-.15-.1-.052-.035-.15-.1-.051-.035-.156-.108-.036-.025q-.373-.261-.755-.554l-.009-.007-.18-.14-.029-.023-.177-.141-.028-.023-.184-.15,0,0q-.4-.328-.8-.692l-.015-.013-.182-.168-.032-.03-.179-.169-.029-.028-.186-.18c7.452,3.132,12.064,2.3,14.575-.491s6-2.348,9.669-3.62,4.845-10.441,4.845-10.441h0v0q0,.212-.005.419V1267c0,.05,0,.1,0,.149,0,.106,0,.211,0,.315a26.436,26.436,0,0,0,2.541,11.251l12.148,23.553h-28.847l-4.414-12.289a8.547,8.547,0,0,0-4.5-4.8l-.173-.079Z" transform="translate(773.109 -1189.324)" fill="#fb9390" opacity="0.2" style="mix-blend-mode:multiply;isolation:isolate"/><g transform="translate(0 8.184)"><path d="M-1128.812,394.06s-5.731-3.835-7.039-1.309,7.445,11.468,7.445,11.468Z" transform="translate(1135.984 -391.889)" fill="#ef7f7f"/><path d="M-1128.812,606.016s-5.731-3.835-7.039-1.309,7.445,11.468,7.445,11.468Z" transform="translate(1135.984 -587.135)" fill="#ef7f7f"/><path d="M-1128.812,750.426s-5.731-3.836-7.039-1.309,7.445,11.468,7.445,11.468Z" transform="translate(1135.984 -720.159)" fill="#ef7f7f"/></g><path d="M-1014.352,364.9h-31.46a4.242,4.242,0,0,0-4.242,4.242v64.3a4.243,4.243,0,0,0,4.242,4.242h31.46a4.242,4.242,0,0,0,4.242-4.242v-64.3A4.243,4.243,0,0,0-1014.352,364.9Z" transform="translate(1056.829 -358.846)" fill="#0b0754"/><path d="M-833.324,949.27s5.69,13.93,5.138,16.563-4,6.156-12.477,4.982a130.123,130.123,0,0,1-14.328-2.744s-.354-18.8,0-19.752,15.587-7.72,16.186-7.72S-833.324,949.27-833.324,949.27Z" transform="translate(877.29 -889.153)" fill="#fb9390" opacity="0.2" style="mix-blend-mode:multiply;isolation:isolate"/><rect width="35.831" height="61.216" transform="translate(8.831 11.838)" fill="#fff"/><path d="M-878.655,404.872H-893.22a.383.383,0,0,1-.384-.384h0a.384.384,0,0,1,.384-.384h14.565a.384.384,0,0,1,.384.384h0A.384.384,0,0,1-878.655,404.872Z" transform="translate(912.714 -394.958)" fill="#fff"/><path d="M-586.714,639.758a2.674,2.674,0,0,1-.705,1.2l-.581-6.682a14.316,14.316,0,0,1-3.159-10.934,9.38,9.38,0,0,1,3.049-5.565c.933-.82,1.958-1.369,2.563-.6,0,0,4.719,11.238,7.98,19.447Z" transform="translate(634.259 -590.892)" fill="#fb9390"/><path d="M-815.8,1231.511a1.76,1.76,0,0,1-1.76,1.76,1.76,1.76,0,0,1-1.76-1.76,1.76,1.76,0,0,1,1.76-1.76A1.76,1.76,0,0,1-815.8,1231.511Z" transform="translate(844.288 -1155.507)" fill="#4951ec" opacity="0.3"/><g transform="translate(25.993 75.27)"><path d="M-805.041,1244.239h-1.049a.209.209,0,0,1-.208-.208v-1.049a.209.209,0,0,1,.208-.208h1.049a.209.209,0,0,1,.208.208v1.049A.209.209,0,0,1-805.041,1244.239Zm-1.049-1.41a.152.152,0,0,0-.152.152v1.049a.152.152,0,0,0,.152.152h1.049a.152.152,0,0,0,.152-.152v-1.049a.152.152,0,0,0-.152-.152Z" transform="translate(806.299 -1242.773)" fill="#daeef7"/></g><rect width="35.831" height="3.249" transform="translate(8.831 11.838)" fill="#bed1f9"/><path d="M-554.956,623.781c-1.3-.6-1.985-3.993-2.229-5.518,1.047-1.053,2.359-2,3.077-1.083,0,0,1.039,2.475,2.479,5.95C-552.613,623.678-553.982,624.229-554.956,623.781Z" transform="translate(602.819 -590.892)" fill="#fa7167"/><path d="M-598.094,1437.189c-2.863,1.759-12.079,7.018-21.609,8.139a.835.835,0,0,0-.786,1.019l1.665,4.459a.74.74,0,0,0,.814.422c2.809-.341,14.4-2.085,22.55-8.393a.73.73,0,0,0,.291-.818l-1.7-4.551A.829.829,0,0,0-598.094,1437.189Z" transform="translate(661.167 -1346.451)" fill="#4951ec"/><path d="M.34,0h0A.34.34,0,0,1,.68.34V1.772a.34.34,0,0,1-.34.34h0A.34.34,0,0,1,0,1.772V.34A.34.34,0,0,1,.34,0Z" transform="matrix(0.937, -0.35, 0.35, 0.937, 62.868, 93.136)" fill="#0b0754"/><path d="M.34,0h0A.34.34,0,0,1,.68.34V1.772a.34.34,0,0,1-.34.34h0A.34.34,0,0,1,0,1.772V.34A.34.34,0,0,1,.34,0Z" transform="translate(61.154 94.193) rotate(-20.464)" fill="#0b0754"/><path d="M.34,0h0A.34.34,0,0,1,.68.34V1.772a.34.34,0,0,1-.34.34h0A.34.34,0,0,1,0,1.772V.34A.34.34,0,0,1,.34,0Z" transform="translate(59.437 95.243) rotate(-20.497)" fill="#0b0754"/><path d="M-402.6,1506.947l.115-.043a.278.278,0,0,0,.163-.358l-.544-1.456a.279.279,0,0,0-.358-.163l-.115.043a.279.279,0,0,0-.163.358l.544,1.456A.279.279,0,0,0-402.6,1506.947Z" transform="translate(461.267 -1408.97)" fill="#0b0754"/><path d="M.34,0h0A.34.34,0,0,1,.68.34V1.772a.34.34,0,0,1-.34.34h0A.34.34,0,0,1,0,1.772V.34A.34.34,0,0,1,.34,0Z" transform="matrix(0.937, -0.35, 0.35, 0.937, 55.932, 97.088)" fill="#0b0754"/><path d="M.34,0h0A.34.34,0,0,1,.68.34V1.771a.34.34,0,0,1-.34.34h0A.34.34,0,0,1,0,1.772V.34A.34.34,0,0,1,.34,0Z" transform="matrix(-0.937, 0.35, -0.35, -0.937, 55.492, 99.615)" fill="#0b0754"/><path d="M-471.237,1538.2l.159-.059a.255.255,0,0,0,.15-.329l-.56-1.5a.255.255,0,0,0-.328-.15l-.159.059a.255.255,0,0,0-.15.328l.56,1.5A.256.256,0,0,0-471.237,1538.2Z" transform="translate(524.481 -1437.744)" fill="#0b0754"/><path d="M.34,0h0A.34.34,0,0,1,.68.34V1.772a.34.34,0,0,1-.34.34h0A.34.34,0,0,1,0,1.772V.34A.34.34,0,0,1,.34,0Z" transform="matrix(0.937, -0.35, 0.35, 0.937, 50.38, 99.16)" fill="#0b0754"/><path d="M.34,0h0A.34.34,0,0,1,.68.34V1.772a.34.34,0,0,1-.34.34h0A.34.34,0,0,1,0,1.772V.34A.34.34,0,0,1,.34,0Z" transform="matrix(0.937, -0.35, 0.35, 0.937, 48.417, 99.551)" fill="#0b0754"/><path d="M-544.3,1557.4l.158-.059a.256.256,0,0,0,.15-.329l-.56-1.5a.256.256,0,0,0-.328-.15l-.159.059a.255.255,0,0,0-.15.328l.56,1.5A.255.255,0,0,0-544.3,1557.4Z" transform="translate(591.786 -1455.43)" fill="#0b0754"/><path d="M.34,0h0A.34.34,0,0,1,.68.34V1.772a.34.34,0,0,1-.34.34h0A.34.34,0,0,1,0,1.772V.34A.34.34,0,0,1,.34,0Z" transform="matrix(-0.937, 0.35, -0.35, -0.937, 45.896, 102.152)" fill="#0b0754"/><path d="M.34,0h0A.34.34,0,0,1,.68.34V1.772a.34.34,0,0,1-.34.34h0A.34.34,0,0,1,0,1.772V.34A.34.34,0,0,1,.34,0Z" transform="translate(42.534 100.737) rotate(-20.482)" fill="#0b0754"/><path d="M-443.731,1478.87l-.008-.021a.415.415,0,0,0,.09-.022l2.255-.842a.45.45,0,0,0,.241-.587l-2.034-5.447a.45.45,0,0,0-.567-.286l-2.255.842a.422.422,0,0,0-.257.3q-.266.116-.536.232a.975.975,0,0,1,.595-1.06l2.255-.842a1,1,0,0,1,1.258.634l2.034,5.447a1,1,0,0,1-.535,1.3l-2.255.842a.949.949,0,0,1-.974-.21Q-444.078,1479.013-443.731,1478.87Z" transform="translate(501.147 -1377.807)" fill="#dde8fe"/><path d="M-401.474,1510.579l.981-.366a.354.354,0,0,1,.447.225.354.354,0,0,1-.19.463l-.981.366Z" transform="translate(459.385 -1413.839)" fill="#bed1f9"/><path d="M-1041.057,288.089s-.081.8-.715.859c.634.055.715.858.715.858s.082-.8.715-.858C-1040.975,288.892-1041.057,288.089-1041.057,288.089Z" transform="translate(1049.2 -288.089)" fill="#fff"/></g><g transform="translate(0 53.998)"><path d="M-1077.119,1119.475s4.165,2.5,3.75,3.727-1.749,3.1-6.044,1.48l-4.247-2.086s3-2.9,3-3.051A27.658,27.658,0,0,1-1077.119,1119.475Z" transform="translate(1131.145 -1107.904)" fill="#ef7f7f"/><path d="M-1620.617,975.973c-.576,1.864-4.993,5.113-11.222,8.6l-.023.013c-.553.31-1.193.689-1.9,1.131h0l-.166.1c-1.047.657-2.234,1.444-3.5,2.334-1.628,1.147-3.383,2.467-5.135,3.9-4.825,3.957-9.611,8.8-11.577,13.375,0,.009-.008.019-.011.028a10.114,10.114,0,0,0-.917,4.261,44.156,44.156,0,0,0,11.322-4.167q.6-.322,1.184-.585c4.353-1.972,7.9-1.562,9.178.21a1.292,1.292,0,0,1,.229.963v0c0,.02-.007.04-.011.06s0,.01,0,.015-.007.034-.012.051l-.007.025-.012.042q-.011.034-.023.067a1.313,1.313,0,0,1-.5.632l-.173.116-.309.206-.107.072-.345.23-.215.143-1.359.907-.167.111-2.209,1.473-3.953,2.634c-4.944,3.29-10.073,6.694-10.8,7.131l-.209.125h0q-.135.08-.291.168l-.064.036-.066.036-.1.056c-.065.034-.132.07-.2.1l-.07.035-.135.068-.01,0-.151.072c-.077.036-.157.072-.239.108l-.084.036a11.407,11.407,0,0,1-1.57.537l-.091.024c-.122.031-.247.062-.375.091l-.115.025c-.215.046-.438.088-.672.126l-.187.029q-.433.064-.909.105l-.149.012-.089.007-.154.01-.149.008-.188.009-.17.006-.1,0-.248,0a23.581,23.581,0,0,1-5.546-.67c-4.742-1.1-14.1,3.578-20.219,7.091v-27.371l.1-.107c2.317-2.614,5.453-6.3,9.637-11.459,0,0,.782-1.046,2.037-2.523,3.485-4.1,10.611-11.524,14.707-9.049l.02.011.105-.037h0c.772-.262,5.539-1.751,8.386.477,0,0,8.485-.7,12.222,1.139l14.184-6.2a2.893,2.893,0,0,1,3.752,1.322A1.893,1.893,0,0,1-1620.617,975.973Z" transform="translate(1685.921 -972.971)" fill="#fb9390"/><path d="M-1296.047,1054.553a41.6,41.6,0,0,0-4.976,1.635,45.63,45.63,0,0,0-4.764,2.2,32.4,32.4,0,0,0-4.43,2.828,16.917,16.917,0,0,0-3.674,3.737l.024.019a19.27,19.27,0,0,1,3.792-3.563,36.524,36.524,0,0,1,4.432-2.752c1.532-.826,3.112-1.564,4.714-2.244,1.509-.638,3.357-1.342,4.891-1.828Z" transform="translate(1343.224 -1048.121)" fill="#ef7f7f"/><path d="M-1376.1,1040.259a11.281,11.281,0,0,0-3.564.693,14.183,14.183,0,0,0-5.981,4.093,13.806,13.806,0,0,0-2,3.029l.026.016a17.739,17.739,0,0,1,2.149-2.883,16.041,16.041,0,0,1,5.893-4.031,13.494,13.494,0,0,1,3.478-.887Z" transform="translate(1411.159 -1034.954)" fill="#ef7f7f"/><path d="M-1436.513,1034.2a10.038,10.038,0,0,0-3.4,1.515,12.619,12.619,0,0,0-4.132,4.594l.025.017a17.245,17.245,0,0,1,4.272-4.376,13.642,13.642,0,0,1,3.244-1.725Z" transform="translate(1463.117 -1029.374)" fill="#ef7f7f"/><path d="M-1099.17,1377.267c.271-1.012,2.065-1.947,3.583-2.571a2.528,2.528,0,0,1,2.74.529,1.315,1.315,0,0,1-.443,1.691c-.992.662-2.778,1.854-4.883,3.258A3.772,3.772,0,0,1-1099.17,1377.267Z" transform="translate(1145.484 -1342.845)" fill="#fa7167"/><path d="M-951.446,979.488c-.467-.358-2.435-2.3-2.081-2.654h0l3.666-1.6a2.945,2.945,0,0,1,2.222-.056h0l.012,0c.02.008.064.025.123.055a1.309,1.309,0,0,1,.788,1.543c-.242.913-2.612,2.258-3.632,2.8A1.019,1.019,0,0,1-951.446,979.488Z" transform="translate(1011.31 -974.827)" fill="#fa7167"/><path d="M-1653.569,1316.035h0q-.135.08-.291.168l-.064.036-.066.036-.1.055c-.065.034-.132.07-.2.105l-.07.035-.135.068-.01,0-.151.072c-.077.036-.157.072-.239.108l-.084.036a11.43,11.43,0,0,1-1.57.537l-.091.024c-.122.032-.247.062-.375.09l-.115.026c-.215.046-.438.088-.672.126l-.187.029c-.289.043-.592.079-.909.106l-.149.012-.089.006-.154.01-.149.008-.188.009-.17.006-.1,0-.248,0a23.6,23.6,0,0,1-5.546-.67c-4.742-1.1-14.1,3.578-20.219,7.091v-27.371l.1-.107q1.158-1.189,2.364-2.563c-3.042,9.89,5.289,13.326,8.242,15.408C-1671.82,1311.942-1656.037,1315.99-1653.569,1316.035Z" transform="translate(1685.921 -1268.815)" fill="#ef7f7f" opacity="0.2" style="mix-blend-mode:multiply;isolation:isolate"/><path d="M-1316.313,1134.66c-7.193,4.485-21.694,15.78-21.305,24.006l-3.517,1.174s-2.728-9.569,13.976-19.511A108.623,108.623,0,0,1-1316.313,1134.66Z" transform="translate(1368.471 -1121.912)" fill="#ef7f7f" opacity="0.2" style="mix-blend-mode:multiply;isolation:isolate"/></g></g></g></g></g></svg>