<svg xmlns="http://www.w3.org/2000/svg" width="27.91" height="32.015" viewBox="0 0 27.91 32.015"><g transform="translate(-3.809 -3.813)"><g transform="translate(3.809 3.813)"><path d="M34.663,43.318a9.877,9.877,0,0,1,8.241-1.1A5.882,5.882,0,0,1,47.122,48.3c-.125,2.288-.1,4.584-.107,6.881a2.148,2.148,0,0,1,0,.415c-.169-.152-.129-.361-.129-.548V52.272c0-.446,0-.446-.4-.29a5.886,5.886,0,0,1-3.6.415,2.506,2.506,0,0,1-1.592-.852q0-1.387,0-2.774a1.846,1.846,0,0,0-2-2.024,3.211,3.211,0,0,0-1.605.4.758.758,0,0,0-.415.74c0,3.683-.049,7.367-.058,11.05,0,.37-.129.446-.446.517a10.488,10.488,0,0,1-3.01.1,2.1,2.1,0,0,1-2.033-2.4V49.467a8.361,8.361,0,0,0-.058-1.784,1.414,1.414,0,0,1,.134-.905,8.472,8.472,0,0,1,2.354-3.2A.78.78,0,0,1,34.663,43.318Z" transform="translate(-21.99 -27.604)" fill="#227cfe"/><path d="M22.663,43.351A8.517,8.517,0,0,0,19.8,47.11c-.076.2,0,.419-.138.593a2.635,2.635,0,0,0-3.781-.82.633.633,0,0,0-.245.611q0,5.779,0,11.558c0,.334-.067.446-.41.446a14.806,14.806,0,0,1-3.3.049A2.118,2.118,0,0,1,9.995,57.3c0-3.63.022-7.255,0-10.885a3.121,3.121,0,0,1,1.57-2.791,10.542,10.542,0,0,1,7.888-1.605A8.472,8.472,0,0,1,22.663,43.351Z" transform="translate(-9.991 -27.636)" fill="#2062af"/><path d="M55.906,20.508A4.753,4.753,0,1,1,51.26,25.24,4.691,4.691,0,0,1,55.906,20.508Z" transform="translate(-32.857 -15.822)" fill="#faa61a"/><path d="M53.273,63.69c1.877,1.28,3.772.981,5.726.058v7.509c0,.161-.022.259-.205.281a9.6,9.6,0,0,1-3.723.058,2.305,2.305,0,0,1-1.81-2.328C53.237,67.4,53.264,65.549,53.273,63.69Z" transform="translate(-33.96 -39.749)" fill="#2062af"/><path d="M46.52,13.005a3.019,3.019,0,0,1-2.956,3.121,3.063,3.063,0,1,1,0-6.127A3.014,3.014,0,0,1,46.52,13.005Z" transform="translate(-26.895 -10)" fill="#faa61a"/></g></g></svg>