<svg xmlns="http://www.w3.org/2000/svg" width="20.861" height="24.846" viewBox="0 0 20.861 24.846"><g transform="translate(-43.516 -153)"><g transform="translate(45.305 156.318)"><g transform="translate(-4.305 -2.152)"><path d="M8.608,0C3.965,0,0,.732,0,3.66S3.941,7.346,8.608,7.346c4.643,0,8.608-.731,8.608-3.66S13.276,0,8.608,0Z" transform="translate(4.305 16.334)" fill="#118de5"/><path d="M5.7,11.393A5.7,5.7,0,1,0,0,5.7,5.676,5.676,0,0,0,5.7,11.393Z" transform="translate(7.217 2.152)" fill="#118de5" opacity="0.4"/></g></g><path d="M4.829,6.749V2.734L0,1.879,10.334,0,20.861,1.879l-4.829.854V6.749Z" transform="translate(43.516 153)" fill="#118de5"/><path d="M0,3.068V0H.307V3.068Z" transform="translate(43.978 154.84)" fill="#118de5"/><path d="M0,.307A.307.307,0,0,1,.307,0H.92a.307.307,0,0,1,.307.307V1.534a.307.307,0,0,1-.307.307H.307A.307.307,0,0,1,0,1.534Z" transform="translate(43.516 157.904)" fill="#118de5"/></g></svg>