<svg xmlns="http://www.w3.org/2000/svg" width="18.66" height="23.333" viewBox="0 0 18.66 23.333"><g transform="translate(-45.666 -290.333)"><g transform="translate(45.666 290.333)"><g transform="translate(-4.666 -2.333)"><path d="M9.33,0C4.3,0,0,.793,0,3.967s4.271,4,9.33,4c5.032,0,9.33-.792,9.33-3.967S14.39,0,9.33,0Z" transform="translate(4.666 17.704)" fill="#118de5"/><path d="M6.174,12.348A6.174,6.174,0,1,0,0,6.174,6.152,6.152,0,0,0,6.174,12.348Z" transform="translate(7.822 2.333)" fill="#118de5" opacity="0.4"/></g></g><path d="M2.333,0,4.667,2.593,2.333,7.778,0,2.593Z" transform="translate(52.667 305.5)" fill="#f3fbff"/></g></svg>