<svg xmlns="http://www.w3.org/2000/svg" xmlns:xlink="http://www.w3.org/1999/xlink" width="204.323" height="150.693" viewBox="0 0 204.323 150.693"><defs><clipPath id="a"><rect width="39.527" height="38.782" fill="#b8ddf7"/></clipPath><clipPath id="b"><rect width="2.648" height="4.529" fill="none"/></clipPath><clipPath id="c"><rect width="9.641" height="23.41" fill="none"/></clipPath><clipPath id="d"><rect width="3.489" height="3.652" fill="none"/></clipPath><clipPath id="e"><rect width="2.207" height="2.207" fill="none"/></clipPath><clipPath id="f"><rect width="2.188" height="8.912" fill="#118de5"/></clipPath><clipPath id="g"><rect width="59.978" height="106.403" fill="none"/></clipPath><clipPath id="h"><rect width="7.892" height="1.563" fill="none"/></clipPath><clipPath id="i"><rect width="57.686" height="106.403" fill="none"/></clipPath><clipPath id="j"><rect width="18.905" height="14.417" fill="#b8ddf7"/></clipPath><clipPath id="k"><rect width="5.552" height="14.427" fill="none"/></clipPath><clipPath id="l"><rect width="2.628" height="2.748" fill="none"/></clipPath><clipPath id="m"><rect width="1.573" height="2.726" fill="none"/></clipPath><clipPath id="n"><rect width="6.739" height="6.48" fill="none"/></clipPath><clipPath id="o"><rect width="5.27" height="24.6" fill="none"/></clipPath><clipPath id="p"><rect width="3.005" height="2.887" fill="none"/></clipPath><clipPath id="q"><rect width="6.407" height="8.857" fill="none"/></clipPath><clipPath id="r"><rect width="11.899" height="3.191" fill="none"/></clipPath><clipPath id="s"><rect width="12.032" height="3.425" fill="none"/></clipPath><clipPath id="t"><rect width="6.298" height="2.053" fill="none"/></clipPath><clipPath id="u"><rect width="37.187" height="36.486" fill="none"/></clipPath><clipPath id="v"><rect width="5.7" height="10.74" fill="none"/></clipPath><clipPath id="w"><rect width="9.893" height="4.74" fill="none"/></clipPath><clipPath id="x"><rect width="3.787" height="13.186" fill="none"/></clipPath><clipPath id="y"><rect width="4.893" height="6.295" fill="none"/></clipPath><clipPath id="aa"><rect width="16.696" height="19.267" fill="none"/></clipPath><clipPath id="ab"><rect width="1.809" height="3.51" fill="none"/></clipPath><clipPath id="ac"><rect width="9.171" height="4.819" fill="none"/></clipPath><clipPath id="ad"><rect width="0.609" height="4.336" fill="none"/></clipPath><clipPath id="ae"><rect width="1.874" height="2.928" fill="none"/></clipPath><clipPath id="af"><rect width="15.12" height="13.474" fill="none"/></clipPath><clipPath id="ag"><rect width="11.595" height="10.331" fill="none"/></clipPath></defs><g transform="translate(-37.137 -60.067)"><g transform="translate(37.137 60.067)"><rect width="13.535" height="0.102" transform="translate(170.315 140.387)" fill="#ebebeb"/><rect width="3.552" height="0.102" transform="translate(131.8 141.496)" fill="#ebebeb"/><rect width="7.843" height="0.102" transform="translate(162.063 136.593)" fill="#ebebeb"/><rect width="17.651" height="0.102" transform="translate(21.437 137.279)" fill="#ebebeb"/><rect width="2.588" height="0.102" transform="translate(42.726 137.279)" fill="#ebebeb"/><rect width="38.28" height="0.102" transform="translate(53.725 139.004)" fill="#ebebeb"/><path d="M120.836,115.584H41.927a2.335,2.335,0,0,1-2.333-2.333V2.333A2.335,2.335,0,0,1,41.927,0h78.909a2.335,2.335,0,0,1,2.332,2.333V113.252a2.335,2.335,0,0,1-2.332,2.333M41.927.1a2.233,2.233,0,0,0-2.23,2.23V113.252a2.233,2.233,0,0,0,2.23,2.23h78.909a2.233,2.233,0,0,0,2.23-2.23V2.333A2.233,2.233,0,0,0,120.836.1Z" transform="translate(-23.414)" fill="#ebebeb"/><path d="M337.133,115.584H258.224a2.335,2.335,0,0,1-2.332-2.333V2.333A2.335,2.335,0,0,1,258.224,0h78.909a2.335,2.335,0,0,1,2.333,2.333V113.252a2.335,2.335,0,0,1-2.333,2.333M258.224.1a2.233,2.233,0,0,0-2.23,2.23V113.252a2.233,2.233,0,0,0,2.23,2.23h78.909a2.233,2.233,0,0,0,2.23-2.23V2.333A2.233,2.233,0,0,0,337.133.1Z" transform="translate(-151.323)" fill="#ebebeb"/><rect width="204.323" height="0.102" transform="translate(0 133.81)" fill="#ebebeb"/><path d="M381.938,84.694H363.4a3.193,3.193,0,0,0-3.192,3.192V99.825a3.193,3.193,0,0,0,3.192,3.192h5.33l2.38,3.113a1.961,1.961,0,0,0,3.116,0l2.38-3.113h5.329a3.192,3.192,0,0,0,3.192-3.192V87.886a3.192,3.192,0,0,0-3.192-3.192" transform="translate(-213.013 -50.084)" fill="#f5f5f5"/><path d="M375.953,108.057h2.1v-7.465H375.6Z" transform="translate(-222.115 -59.485)" fill="#e0e0e0"/><path d="M392.687,96.438a2.36,2.36,0,0,0-.758-1.166c-.921-.413-2.936-.281-4.719-.047a3.634,3.634,0,0,0,.172-.362,5.408,5.408,0,0,0,.371-1.683c-.027-.395-.21-1.274-.545-1.485a.94.94,0,0,0-.841,0c-.353.369-.107,1.538-.248,2.029a7.525,7.525,0,0,1-1.219,1.87c-.623.116-1.02.2-1.02.2v6.59s5.383,1.465,7.115.991c.667-.182.98-1.337,1.225-1.983a10.255,10.255,0,0,0,.467-4.957" transform="translate(-227.009 -54.165)" fill="#e0e0e0"/><path d="M297.972,60.6a4.671,4.671,0,0,0-4.656-4.294h-3.357A4.671,4.671,0,0,0,285.3,60.6l-.282,2.848h13.233Z" transform="translate(-168.548 -33.299)" fill="#ebebeb"/><path d="M299.8,44.041a3.151,3.151,0,1,0-3.151,3.151,3.151,3.151,0,0,0,3.151-3.151" transform="translate(-173.563 -24.18)" fill="#ebebeb"/><path d="M85.663,163.492a2.1,2.1,0,0,0-1.329.472L81.8,161.926a2.1,2.1,0,1,0-.55.684l2.529,2.039a2.094,2.094,0,0,0,0,1.9l-2.529,2.039a2.116,2.116,0,1,0,.55.684l2.529-2.039a2.108,2.108,0,1,0,1.329-3.743" transform="translate(-46.017 -93.947)" fill="#e0e0e0"/><path d="M214.575,350.743c0,2.556-35.473,4.627-79.232,4.627s-79.232-2.071-79.232-4.627,35.473-4.627,79.232-4.627,79.232,2.072,79.232,4.627" transform="translate(-33.181 -204.677)" fill="#f5f5f5"/><path d="M340.64,217.135h30.928a4.3,4.3,0,0,1,4.3,4.3v23.509a4.3,4.3,0,0,1-4.3,4.3H348.214a7.6,7.6,0,0,1-7.539,6.674c-.172,0-.34-.014-.51-.026a17.965,17.965,0,0,0,2.84-6.648H340.64a4.3,4.3,0,0,1-4.3-4.3V221.435a4.3,4.3,0,0,1,4.3-4.3" transform="translate(-198.896 -128.404)" fill="#407bff"/><g transform="translate(137.444 88.732)" opacity="0.67"><g clip-path="url(#a)"><path d="M340.64,217.135h30.928a4.3,4.3,0,0,1,4.3,4.3v23.509a4.3,4.3,0,0,1-4.3,4.3H348.214a7.6,7.6,0,0,1-7.539,6.674c-.172,0-.34-.014-.51-.026a17.965,17.965,0,0,0,2.84-6.648H340.64a4.3,4.3,0,0,1-4.3-4.3V221.435a4.3,4.3,0,0,1,4.3-4.3" transform="translate(-336.34 -217.135)" fill="#b8ddf7"/></g></g><path d="M337.484,231.256l-1.529-2.584.955-1.65a.827.827,0,0,0,.057-.709l-.071-.186a.826.826,0,0,0-.75-.531l-1.5-.039a.825.825,0,0,0-.746.429l-.3.556a.975.975,0,0,0-.029.877l.647,1.394,1.2,3.206Z" transform="translate(-197.203 -133.383)" fill="#ffa4a4"/><path d="M351.125,236.488l-8.731,6.355-4.1-7.672-2.329,1.008s3.591,11.631,5.678,11.162,7.981-3.383,9.9-5.384a4.639,4.639,0,0,0,.747-5.148.77.77,0,0,0-1.163-.321" transform="translate(-198.673 -139.069)" fill="#407bff"/><path d="M378.112,201.372s-3.084.809-1.655,4.529c0,0,1.534-.4,1.785-1.4s.485-2.386.485-2.386Z" transform="translate(-222.395 -119.082)" fill="#263238"/><g transform="translate(153.683 82.29)" opacity="0.3"><g clip-path="url(#b)"><path d="M378.112,201.372s-3.084.809-1.655,4.529c0,0,1.534-.4,1.785-1.4s.485-2.386.485-2.386Z" transform="translate(-376.078 -201.372)"/></g></g><path d="M386.9,237.227l-5.631-.186-2.33.338-.315,4.246,4.537,1.51L388,242.17l.253-4.091-.345-.818Z" transform="translate(-223.901 -140.175)" fill="#f57676"/><path d="M379.5,261.832h7.968c.081-2.807.495-17.382.407-17.3s.841-3.105.841-3.105v-1.294l-.841-1.391s-1.809,2.757-4.783,2.62a3.593,3.593,0,0,1-3.305-2.943l-.355,4.3-.356,10.417.453,4.415Z" transform="translate(-224.17 -140.992)" fill="#407bff"/><g transform="translate(154.909 97.43)" opacity="0.6"><g clip-path="url(#c)"><path d="M379.5,261.832h7.968c.081-2.807.495-17.382.407-17.3s.841-3.105.841-3.105v-1.294l-.841-1.391s-1.809,2.757-4.783,2.62a3.593,3.593,0,0,1-3.305-2.943l-.355,4.3-.356,10.417.453,4.415Z" transform="translate(-379.079 -238.423)" fill="#fff"/></g></g><path d="M369.843,260.734h4.318a155.1,155.1,0,0,0,.962-15.9,53.5,53.5,0,0,1-1.206-5.978c-.259-2.356,3.106-2.044,6.05-1.656s-2.29,7.829-2.29,7.829-.37,10.058.492,15.71h10.646a51.142,51.142,0,0,1-2.475-9.369c-.453-3.947,2.265-9.705,1.876-12.514s-9.7-2.237-9.7-2.237-5.963-.039-7.291.02c-1.555.07-2.174,4.161-2.908,7.393s.616,6.432,1.353,10.5a20.751,20.751,0,0,1,.172,6.207" transform="translate(-217.68 -139.895)" fill="#263238"/><path d="M380.8,236.6c1.939,0,3.934.013,3.934.013s1.192-.073,2.738-.038c.615.422,1.429,1.4.781,3.466l-1.349.518.246,1.326a11.6,11.6,0,0,1-3.266,3.395c.005-.165.009-.257.009-.257s5.235-7.441,2.29-7.829-6.309-.7-6.05,1.656a53.6,53.6,0,0,0,1.207,5.979s0,.039,0,.11a8.484,8.484,0,0,1-2.048-3.6l.55-1.529-1.219-.671a3.27,3.27,0,0,1,2.18-2.535" transform="translate(-223.901 -139.895)" fill="#407bff"/><path d="M383.642,229.17a1.4,1.4,0,0,1,.121-1.349c2.214-.75,2.011-2.413,1.5-3.955l3.568-3.639c-.212,1.939-.29,6.395.977,7.948v.355a4.84,4.84,0,0,1-4.758,1.772,1.857,1.857,0,0,1-1.409-1.132" transform="translate(-226.802 -130.232)" fill="#ffa4a4"/><g transform="translate(158.462 90.744)" opacity="0.1"><g clip-path="url(#d)"><path d="M387.773,224.95l2.834-2.89.656.235c-.02.349-.034.729-.04,1.129a4.6,4.6,0,0,1-3.235,2.288c-.058-.254-.131-.51-.215-.762" transform="translate(-387.773 -222.06)"/></g></g><path d="M386.141,203.861c-.863,3.3-1.156,4.713-3.178,6.094-3.043,2.079-6.9.3-7.047-3.189-.128-3.141,1.3-8,4.829-8.69a4.649,4.649,0,0,1,5.4,5.786" transform="translate(-222.295 -117.078)" fill="#ffa4a4"/><path d="M379.876,214.45a7.385,7.385,0,0,1-1.31,1.546,1.186,1.186,0,0,0,.931.375Z" transform="translate(-223.866 -126.816)" fill="#f57676"/><path d="M388.568,210.031a.149.149,0,0,0,.067-.019.135.135,0,0,0,.047-.185v0a1.579,1.579,0,0,0-1.223-.792.139.139,0,0,0-.139.131.136.136,0,0,0,.128.139,1.324,1.324,0,0,1,1.005.664.136.136,0,0,0,.116.064" transform="translate(-229.042 -123.612)" fill="#263238"/><path d="M376.8,208.345a.149.149,0,0,0,.067-.019,1.322,1.322,0,0,1,1.2-.079.135.135,0,0,0,.183-.054v0a.138.138,0,0,0-.06-.184,1.594,1.594,0,0,0-1.456.083.135.135,0,0,0,.067.255" transform="translate(-222.74 -122.924)" fill="#263238"/><path d="M383.44,220.241a2.662,2.662,0,0,1-.473-.041.082.082,0,0,1-.068-.095v0a.083.083,0,0,1,.094-.067,2.251,2.251,0,0,0,1.948-.544.084.084,0,0,1,.124.112,2.334,2.334,0,0,1-1.625.638" transform="translate(-226.428 -129.78)" fill="#263238"/><path d="M386.624,205.358a4.191,4.191,0,0,1-1-3.352,4.5,4.5,0,0,1-1.262-2.814,3.123,3.123,0,0,0,0,1.987s-3.443-.251-3.362-1.987a1.456,1.456,0,0,0,.291,1.326s-3.059.13-2.646-1.456,2.811-2.362,2.811-2.362,2.285-1.941,5.443,1.488a4.2,4.2,0,0,1,1.083,6.195Z" transform="translate(-223.888 -115.996)" fill="#263238"/><path d="M397.886,216.749a2.484,2.484,0,0,1-1.463,1.216c-.837.251-1.272-.492-1.054-1.291.195-.716.867-1.715,1.715-1.617a1.125,1.125,0,0,1,.8,1.692" transform="translate(-233.77 -127.17)" fill="#ffa4a4"/><path d="M386.853,212.5c-.029.283-.2.5-.393.48s-.313-.264-.28-.552.2-.5.389-.479.312.264.284.551" transform="translate(-228.366 -125.335)" fill="#2e353a"/><path d="M378.969,211.674c-.029.283-.2.5-.389.479s-.312-.264-.284-.551.2-.5.389-.479.316.264.284.551" transform="translate(-223.704 -124.847)" fill="#2e353a"/><path d="M378.491,210.8l-.663-.268s.3.57.663.268" transform="translate(-223.43 -124.496)" fill="#2e353a"/><path d="M386.377,211.621l-.663-.268s.3.57.663.268" transform="translate(-228.093 -124.984)" fill="#2e353a"/><path d="M395.932,222.769a1.1,1.1,0,0,0,.812-1.85l-.143.132a.906.906,0,1,1-.3-.215l.08-.177a1.1,1.1,0,1,0-.451,2.111" transform="translate(-233.483 -130.43)" fill="#407bff"/><g transform="translate(161.345 90.132)" opacity="0.6"><g clip-path="url(#e)"><path d="M395.932,222.769a1.1,1.1,0,0,0,.812-1.85l-.143.132a.906.906,0,1,1-.3-.215l.08-.177a1.1,1.1,0,1,0-.451,2.111" transform="translate(-394.829 -220.562)" fill="#fff"/></g></g><path d="M386.3,264.038l-3,.13-1.005-1.62a.826.826,0,0,0-.6-.384l-.2-.025a.826.826,0,0,0-.822.411l-.741,1.3a.826.826,0,0,0,.027.861l.347.53a.975.975,0,0,0,.76.439l1.534.087,3.391.456Z" transform="translate(-224.614 -155.013)" fill="#ffa4a4"/><path d="M397.989,238.734l1.491,10.7-8.7,0-.208,2.53s11.95,2.314,12.52.253.778-8.633-.083-11.269a4.638,4.638,0,0,0-4.188-3.085.77.77,0,0,0-.831.875" transform="translate(-230.966 -140.657)" fill="#407bff"/><path d="M287.937,89.066h-9.55l-9.631,110.081h9.55a8.924,8.924,0,0,0,8.717-8.015l8.228-94.05a7.227,7.227,0,0,0-7.314-8.015" transform="translate(-158.93 -52.669)" fill="#263238"/><path d="M329.229,114.971a.855.855,0,0,1,.835-.768.693.693,0,0,1,.7.768l-.645,7.375a.855.855,0,0,1-.836.768.693.693,0,0,1-.7-.768Z" transform="translate(-194.307 -67.534)" fill="#407bff"/><g transform="translate(134.273 46.669)" opacity="0.3"><g clip-path="url(#f)"><path d="M329.229,114.971a.855.855,0,0,1,.835-.768.693.693,0,0,1,.7.768l-.645,7.375a.855.855,0,0,1-.836.768.693.693,0,0,1-.7-.768Z" transform="translate(-328.581 -114.203)" fill="#118de5"/></g></g><path d="M219.77,199.147H180.421a7.227,7.227,0,0,1-7.314-8.015l8.228-94.05a8.924,8.924,0,0,1,8.717-8.015H229.4a7.228,7.228,0,0,1,7.314,8.015l-8.229,94.05a8.923,8.923,0,0,1-8.716,8.015" transform="translate(-102.349 -52.669)" fill="#118de5"/><path d="M231.911,93.566H221.683a1.485,1.485,0,0,0-1.422,1.163l-.069.32a3.626,3.626,0,0,1-3.472,2.838H207a2.919,2.919,0,0,1-2.976-2.838l-.013-.32a1.2,1.2,0,0,0-1.219-1.163H192.561a6.876,6.876,0,0,0-6.717,6.176l-8.229,94.05a5.569,5.569,0,0,0,5.636,6.176H222.6a6.876,6.876,0,0,0,6.716-6.176l8.229-94.05a5.569,5.569,0,0,0-5.636-6.176" transform="translate(-105.02 -55.331)" fill="#118de5"/><g transform="translate(72.891 38.235)" opacity="0.7"><g clip-path="url(#g)"><path d="M231.911,93.566H221.683a1.485,1.485,0,0,0-1.422,1.163l-.069.32a3.626,3.626,0,0,1-3.472,2.838H207a2.919,2.919,0,0,1-2.976-2.838l-.013-.32a1.2,1.2,0,0,0-1.219-1.163H192.561a6.876,6.876,0,0,0-6.717,6.176l-8.229,94.05a5.569,5.569,0,0,0,5.636,6.176H222.6a6.876,6.876,0,0,0,6.716-6.176l8.229-94.05a5.569,5.569,0,0,0-5.636-6.176" transform="translate(-177.593 -93.566)" fill="#fff"/></g></g><g transform="translate(103.179 38.496)" opacity="0.2"><g clip-path="url(#h)"><path d="M254.056,94.985a.87.87,0,0,1-.85.782.705.705,0,0,1-.713-.782.87.87,0,0,1,.85-.782.7.7,0,0,1,.713.782" transform="translate(-252.49 -94.203)"/><path d="M264.938,94.2h-2.68a.87.87,0,0,0-.85.782.7.7,0,0,0,.713.781H264.8a.87.87,0,0,0,.85-.781.7.7,0,0,0-.713-.782" transform="translate(-257.762 -94.204)"/></g></g><path d="M208.668,102.906h.827l.072-.828h-.827Z" transform="translate(-123.397 -60.364)" fill="#407bff"/><path d="M212.791,100.881l-.072.828h.828l.072-.828.072-.828h-.828Z" transform="translate(-125.792 -59.167)" fill="#407bff"/><path d="M216.985,98.028l-.072.828-.072.827-.072.828h.827l.072-.828.072-.827.072-.828Z" transform="translate(-128.187 -57.969)" fill="#407bff"/><path d="M303.554,98.164l-.053.607h-.4l-.106,1.213h.4l-.053.607h3.641l.213-2.427Zm1.459,1.82H303.8l.106-1.213h1.214Z" transform="translate(-179.174 -58.05)" fill="#407bff"/><g transform="translate(74.842 38.235)" opacity="0.4"><g clip-path="url(#i)"><path d="M210.309,104.141l-27.163,101a5.715,5.715,0,0,0,3.391,1.078h2.124l27.453-102.082Z" transform="translate(-183.146 -99.82)" fill="#fff"/><path d="M248.984,93.566H238.756a1.485,1.485,0,0,0-1.422,1.163l-.069.32a3.629,3.629,0,0,1-3.347,2.833L206.464,199.969H227.4l27.216-101.2a5.541,5.541,0,0,0-5.637-5.2" transform="translate(-196.935 -93.566)" fill="#fff"/></g></g><path d="M207.5,152.724l-1.226-.266a.555.555,0,0,1-.4-.74l1.71-4.472,1.959.426-1.393,4.669a.555.555,0,0,1-.649.383" transform="translate(-121.725 -87.074)" fill="#407bff"/><path d="M220.816,143.739h0a.63.63,0,0,1-.482-.749l.166-.765a.63.63,0,0,1,1.231.268l-.166.765a.63.63,0,0,1-.749.482" transform="translate(-130.287 -83.811)" fill="#407bff"/><path d="M191.214,125.433s-4.659-.531-6.289-1.367c-3.836-1.97-7.5-6.668-8.275-6.837-1.266-.275-2.993,2.723-3.858,6.7s-.539,7.419.727,7.694c.778.169,6.06-2.584,10.368-2.782,1.83-.085,6.288,1.367,6.288,1.367Z" transform="translate(-101.896 -69.313)" fill="#407bff"/><g transform="translate(70.413 47.898)" opacity="0.3"><g clip-path="url(#j)"><path d="M191.214,125.433s-4.659-.531-6.289-1.367c-3.836-1.97-7.5-6.668-8.275-6.837-1.266-.275-2.993,2.723-3.858,6.7s-.539,7.419.727,7.694c.778.169,6.06-2.584,10.368-2.782,1.83-.085,6.288,1.367,6.288,1.367Z" transform="translate(-172.309 -117.211)" fill="#b8ddf7"/></g></g><path d="M177.378,124.923c-.864,3.974-2.591,6.973-3.857,6.7s-1.592-3.72-.727-7.694,2.591-6.973,3.857-6.7,1.592,3.72.727,7.694" transform="translate(-101.896 -69.313)" fill="#407bff"/><g transform="translate(70.413 47.898)" opacity="0.4"><g clip-path="url(#k)"><path d="M177.378,124.923c-.864,3.974-2.591,6.973-3.857,6.7s-1.592-3.72-.727-7.694,2.591-6.973,3.857-6.7,1.592,3.72.727,7.694" transform="translate(-172.309 -117.211)"/></g></g><path d="M208.512,134.823a1.038,1.038,0,0,0-1.252.862c-.076.542-.175,1.1-.3,1.675s-.267,1.124-.423,1.648a1.038,1.038,0,0,0,.781,1.3l2.563.558c1.536.334,2.642-.747,2.955-2.295a2.806,2.806,0,0,0-2.165-3.284" transform="translate(-122.111 -79.714)" fill="#118de5"/><path d="M179.046,133.23l-.136.622a.766.766,0,0,0,.454.87l1.572.653c.121-.43.233-.875.333-1.335s.183-.912.251-1.353l-1.7-.058a.764.764,0,0,0-.774.6" transform="translate(-105.789 -78.429)" fill="#263238"/><g transform="translate(73.104 54.198)" opacity="0.8"><g clip-path="url(#l)"><path d="M179.046,133.23l-.136.622a.766.766,0,0,0,.454.87l1.572.653c.121-.43.233-.875.333-1.335s.183-.912.251-1.353l-1.7-.058a.764.764,0,0,0-.774.6" transform="translate(-178.893 -132.627)" fill="#fff"/></g></g><g transform="translate(74.16 54.22)" opacity="0.2"><g clip-path="url(#m)"><path d="M181.761,133.846c-.086.4-.182.777-.284,1.15l.988.411c.121-.43.234-.875.333-1.335s.183-.912.251-1.353l-1.069-.037c-.063.382-.134.769-.219,1.165" transform="translate(-181.477 -132.681)"/></g></g><path d="M272.207,135.37a2.64,2.64,0,0,0,2.387-.257c1.255-.822,3.612.212,2.9,3.557-1.226,5.755-3.785,9.884-2.126,11.626,0,0-5.524.253-4.706-4.626.613-3.659,4.769-7.813,3.767-8.64-.334-.275-.82-.133-2.389-.133Z" transform="translate(-160.007 -79.741)" fill="#263238"/><path d="M274.151,136.919a7.438,7.438,0,0,1,2.243.269,5.606,5.606,0,0,0,.293-2.308,12.4,12.4,0,0,0-2.367.511Z" transform="translate(-162.12 -79.762)" fill="#407bff"/><path d="M259.54,121.952s-2.3-.656-.782-2.138c1.977-1.935,4.793,1.686,4.793,1.686s6.589,2.881,1.149,9.562c0,0-1.963,3.515-2.373,2.148s2.322-5.249,2.322-5.249l-.163-3.472-.756-1.355-2.374-1.354Z" transform="translate(-152.712 -70.517)" fill="#263238"/><path d="M217.945,165.446a2.273,2.273,0,0,0-3.125-.752l-.035.021c-.712.436-1.474.926-2.226,1.372l-2.269,1.362q-1.592.939-3.2,1.817a20.56,20.56,0,0,1-.037-2.451c.029-.956.1-1.931.171-2.911s.169-1.974.253-2.945l0-.026a1.134,1.134,0,0,0-2.194-.488c-.362.984-.648,1.957-.933,2.953s-.506,2-.7,3.042a19.128,19.128,0,0,0-.343,3.278,6.887,6.887,0,0,0,.267,2.05,3.24,3.24,0,0,0,.982,1.53,2.8,2.8,0,0,0,1.241.6,3.1,3.1,0,0,0,1.193-.008,1.516,1.516,0,0,0,.278-.083l.134-.055c.87-.358,1.738-.721,2.58-1.126s1.684-.811,2.505-1.25,1.635-.89,2.435-1.366,1.579-.955,2.382-1.514a2.279,2.279,0,0,0,.642-3.053" transform="translate(-120.226 -94.441)" fill="#ce7a63"/><path d="M232.451,166.394c1.376,2.773-.6,5.182-4.237,9.038a10.9,10.9,0,0,1-3.763-6.05s4.187-3.466,8-2.988" transform="translate(-132.73 -98.371)" fill="#118de5"/><g transform="translate(93.115 70.581)" opacity="0.2"><g clip-path="url(#n)"><path d="M234.6,173.453c-1.346-.819-2.852-1.187-3.913.152a16.393,16.393,0,0,1-2.825,2.89,11.535,11.535,0,0,0,2.369,2.7c2.17-2.3,3.742-4.089,4.37-5.745" transform="translate(-227.863 -172.718)"/></g></g><path d="M206.615,149.7l.934.616a1.3,1.3,0,0,1,.584,1.04l.072,1.966a2.429,2.429,0,0,1-.949,2.015l-.387.3a8.264,8.264,0,0,1-2.694-3.1l-.376-.588a1.083,1.083,0,0,1,.3-1.512l1.156-.759a1.248,1.248,0,0,1,1.362.026" transform="translate(-120.408 -88.4)" fill="#ce7a63"/><path d="M224.663,272.82c2.119-6.553,3.562-13.8,2.125-19.1,8.747-25.686,4.8-33.164,4.8-33.164l-10.409-3.8s-1.488,23.134-1.936,34.32a188.762,188.762,0,0,1-2.548,21.74Z" transform="translate(-128.145 -128.182)" fill="#263238"/><g transform="translate(98.17 98.472)" opacity="0.5"><g clip-path="url(#o)"><path d="M243.98,244.376l-2.111-3.405-1.294,2.656a81.582,81.582,0,0,0,.951,21.943,114.9,114.9,0,0,0,3.979-15.462Z" transform="translate(-240.233 -240.971)"/></g></g><path d="M242.749,275.52h7.889c.806-6.793.815-14.1-1.592-18.992,3.665-26.886-1.639-33.47-1.639-33.47l-10.943-1.732s2.971,22.99,4.674,34.055a181.143,181.143,0,0,1,1.612,20.14" transform="translate(-139.833 -130.881)" fill="#263238"/><path d="M229.291,171.5a45.289,45.289,0,0,0-.982,6.038c-.351,2.961-.608,5.889-.946,10.782l14.815,2.345c.363-4.221,1.6-8.9,5.749-17.868a3.5,3.5,0,0,0-2.244-4.959c-.577-.152-1.192-.3-1.826-.433a47.779,47.779,0,0,0-6.727-1.065c-.742-.049-1.514-.077-2.255-.092-2.672-.051-5.09,2.654-5.584,5.251" transform="translate(-134.452 -98.312)" fill="#118de5"/><path d="M257.5,150.361c-.928,2.072-2.275,5.924-1.1,7.591,0,0-2-.632-6.781,1.371-.974-2.007.054-2.436.054-2.436,2.548-.187,2.9-1.967,2.874-3.7Z" transform="translate(-147.366 -88.916)" fill="#ce7a63"/><path d="M252.676,168.764a1.913,1.913,0,0,1,1.131,1.114,1.441,1.441,0,0,0,2.026.667,15.7,15.7,0,0,0,3.542-2.55,14.4,14.4,0,0,1-1.131-1s-4.6,1.07-5.569,1.765" transform="translate(-149.421 -98.755)" fill="#fff"/><path d="M246.967,167.609a2.189,2.189,0,0,0-.965.429.46.46,0,0,1-.71-.515c.511-1.446,1.391-1.618,1.391-1.618a1.858,1.858,0,0,1,1.326.018,1.554,1.554,0,0,0-1.042,1.686" transform="translate(-145.038 -98.046)" fill="#fff"/><g transform="translate(105.113 62.6)" opacity="0.2"><g clip-path="url(#p)"><path d="M260.223,153.188l-2.93,1.674a6.771,6.771,0,0,1-.07,1.213A3.334,3.334,0,0,0,260,154.351a3.273,3.273,0,0,0,.222-1.163" transform="translate(-257.223 -153.188)"/></g></g><path d="M259.714,131.379c-1.21,3.391-1.65,4.848-3.91,6.209-3.4,2.047-7.309.06-7.139-3.565.153-3.263,2.106-8.261,5.891-8.845a4.612,4.612,0,0,1,5.158,6.2" transform="translate(-147.046 -73.986)" fill="#ce7a63"/><path d="M263.528,139.261c-.089.289-.313.487-.5.444s-.266-.314-.177-.6.313-.488.5-.444.266.314.177.6" transform="translate(-155.416 -81.992)" fill="#263238"/><path d="M254.675,136.893c-.089.289-.313.488-.5.444s-.266-.314-.177-.6.313-.488.5-.444.266.314.177.6" transform="translate(-150.181 -80.592)" fill="#263238"/><path d="M254.559,135.863l-.626-.362s.186.625.626.362" transform="translate(-150.164 -80.129)" fill="#263238"/><path d="M255.975,139.234a8.884,8.884,0,0,1-1.59,1.6,1.2,1.2,0,0,0,.961.433Z" transform="translate(-150.431 -82.337)" fill="#ba4d3c"/><path d="M265.3,134.524a.161.161,0,0,1-.113-.072,1.3,1.3,0,0,0-1.062-.613.161.161,0,0,1-.17-.167.192.192,0,0,1,.182-.181,1.614,1.614,0,0,1,1.352.759.18.18,0,0,1-.059.243.184.184,0,0,1-.129.031" transform="translate(-156.089 -78.94)" fill="#263238"/><path d="M253.663,131.186a.163.163,0,0,1-.089-.091.174.174,0,0,1,.109-.221,1.848,1.848,0,0,1,1.636.1.161.161,0,0,1,.035.236.191.191,0,0,1-.252.044,1.477,1.477,0,0,0-1.3-.065.19.19,0,0,1-.141,0" transform="translate(-149.945 -77.31)" fill="#263238"/><path d="M263.413,138.23l-.626-.362s.185.625.626.362" transform="translate(-155.4 -81.529)" fill="#263238"/><path d="M222.779,193.542h-3.534a.788.788,0,0,1-.733-.6l-1.637-7.649a.473.473,0,0,1,.475-.6h3.534a.789.789,0,0,1,.733.6l1.637,7.649a.473.473,0,0,1-.474.6" transform="translate(-128.242 -109.214)" fill="#263238"/><path d="M221.779,193.542h-3.534a.789.789,0,0,1-.733-.6l-1.637-7.649a.473.473,0,0,1,.475-.6h3.534a.789.789,0,0,1,.733.6l1.637,7.649a.473.473,0,0,1-.474.6" transform="translate(-127.65 -109.214)" fill="#263238"/><g transform="translate(88.211 75.471)" opacity="0.2"><g clip-path="url(#q)"><path d="M221.779,193.542h-3.534a.789.789,0,0,1-.733-.6l-1.637-7.649a.473.473,0,0,1,.475-.6h3.534a.789.789,0,0,1,.733.6l1.637,7.649a.473.473,0,0,1-.474.6" transform="translate(-215.861 -184.685)" fill="#fff"/></g></g><path d="M225.444,194.935l1.092-.243a1.3,1.3,0,0,1,1.154.3l1.462,1.315a2.427,2.427,0,0,1,.788,2.084l-.056.483a8.266,8.266,0,0,1-4.1-.219l-.684-.139a1.083,1.083,0,0,1-.88-1.265l.258-1.359a1.248,1.248,0,0,1,.966-.961" transform="translate(-132.582 -115.113)" fill="#ce7a63"/><path d="M249.887,175.839a2.272,2.272,0,0,0-2.475,2.049l-.007.07c-.038.407-.092.907-.145,1.369s-.119.942-.191,1.411c-.138.941-.306,1.875-.492,2.8s-.422,1.828-.675,2.717c-.215.712-.464,1.4-.733,2.067a4.774,4.774,0,0,1-.983-.061,22.559,22.559,0,0,1-3.121-.693c-.961-.3-1.93-.651-2.9-1.019s-1.947-.763-2.9-1.147l-.027-.011a1.133,1.133,0,0,0-1.1,1.962c.9.663,1.8,1.239,2.74,1.817s1.905,1.091,2.916,1.577a22.747,22.747,0,0,0,3.594,1.239,8.268,8.268,0,0,0,2.04.293,4.395,4.395,0,0,0,1.365-.2,3.427,3.427,0,0,0,1.6-1.053,1.83,1.83,0,0,0,.2-.289l.041-.076a23.035,23.035,0,0,0,1.373-3.021,29.66,29.66,0,0,0,.952-3.089c.262-1.035.47-2.078.635-3.124.078-.524.149-1.049.209-1.577s.105-1.038.135-1.634a2.277,2.277,0,0,0-2.056-2.376" transform="translate(-138.191 -103.977)" fill="#ce7a63"/><path d="M267.787,171.433c2.528,1.787,2.648,4.46,1.283,9.578-1.826.915-6.264-.243-6.264-.243s1.4-7.944,4.981-9.335" transform="translate(-155.411 -101.377)" fill="#118de5"/><path d="M252.755,146.382a23.815,23.815,0,0,1,4.556-.138,2.684,2.684,0,0,1-2.894,1.736,1.561,1.561,0,0,1-1.659-1.456c0-.047,0-.095,0-.142" transform="translate(-149.467 -86.467)" fill="#263238"/><path d="M256.09,148.6a3.146,3.146,0,0,0-1.886.437,1.859,1.859,0,0,0,1.065.333,3.109,3.109,0,0,0,1.882-.437,1.791,1.791,0,0,0-1.061-.333" transform="translate(-150.324 -87.869)" fill="#ba4d3c"/><path d="M253.132,146.332a.7.7,0,0,0,.511.514,18.117,18.117,0,0,0,2.976-.17.96.96,0,0,0,.766-.475,27.574,27.574,0,0,0-4.253.13" transform="translate(-149.69 -86.439)" fill="#fff"/><path d="M262.244,124.62a4.764,4.764,0,0,0-.635.145v.194a5.148,5.148,0,0,1,1.586.234c2.827.863,3.282,2.436,2.322,4.8-.454,1.12-.7,3.495-.176,3.939a1.767,1.767,0,0,0,1.074.011c.35-.806.685-1.767,1.115-2.97a4.727,4.727,0,0,0-5.286-6.355" transform="translate(-154.703 -73.656)" fill="#263238"/><path d="M272.27,144.659a2.886,2.886,0,0,1-2.025.879c-.978-.006-1.135-1.014-.585-1.854.5-.757,1.6-1.665,2.449-1.255a1.372,1.372,0,0,1,.161,2.229" transform="translate(-159.278 -84.166)" fill="#ce7a63"/><g transform="translate(95.499 74.667)" opacity="0.9"><g clip-path="url(#r)"><path d="M245.16,185.908c-6.879-.425-9.986-1.7-11.226-2.413a.663.663,0,0,1-.107-.076c-.357-.313.092-.881.5-.644,1.083.625,4.068,1.9,10.879,2.318a.408.408,0,1,1-.05.815" transform="translate(-233.697 -182.718)" fill="#fff"/></g></g><g transform="translate(94.574 78.717)" opacity="0.9"><g clip-path="url(#s)"><path d="M243.464,195.657a.412.412,0,0,1-.429.4,30.263,30.263,0,0,1-11.373-2.647.41.41,0,0,1,.358-.737,29.974,29.974,0,0,0,11.052,2.568.409.409,0,0,1,.392.42" transform="translate(-231.432 -192.628)" fill="#fff"/></g></g><g transform="translate(93.87 86.517)" opacity="0.9"><g clip-path="url(#t)"><path d="M235.519,213.76c-3.185-.623-4.824-1.047-5.514-1.243a.409.409,0,0,1,.222-.787c.666.188,2.3.611,5.449,1.228a.408.408,0,1,1-.157.8" transform="translate(-229.709 -211.715)" fill="#fff"/></g></g><path d="M260.558,125.657a.574.574,0,0,1-.744-.29.866.866,0,0,1,.116-.844,1.848,1.848,0,0,1,.7-.546,2.175,2.175,0,0,0-.47.955c.007.3.12.812.4.726" transform="translate(-153.604 -73.314)" fill="#263238"/><path d="M269.148,145.222a.262.262,0,0,1-.3.255.419.419,0,0,1-.311-.3,1.128,1.128,0,0,1-.017-.455,3.139,3.139,0,0,1,.25-1.011,1.411,1.411,0,0,1,.721-.724.463.463,0,0,1,.061.5,2.746,2.746,0,0,1-.284.415,1.448,1.448,0,0,0-.177,1.259c.052,0,.009.062.06.065" transform="translate(-158.779 -84.555)" fill="#263238"/><path d="M109.451,211.886h-29.1a4.045,4.045,0,0,0-4.045,4.045v22.117a4.045,4.045,0,0,0,4.045,4.045h21.97a7.148,7.148,0,0,0,7.092,6.278c.162,0,.32-.013.479-.024a16.909,16.909,0,0,1-2.672-6.254h2.227a4.045,4.045,0,0,0,4.045-4.045V215.931a4.045,4.045,0,0,0-4.045-4.045" transform="translate(-45.126 -125.299)" fill="#407bff"/><g transform="translate(31.183 86.586)" opacity="0.4"><g clip-path="url(#u)"><path d="M109.451,211.886h-29.1a4.045,4.045,0,0,0-4.045,4.045v22.117a4.045,4.045,0,0,0,4.045,4.045h21.97a7.148,7.148,0,0,0,7.092,6.278c.162,0,.32-.013.479-.024a16.909,16.909,0,0,1-2.672-6.254h2.227a4.045,4.045,0,0,0,4.045-4.045V215.931a4.045,4.045,0,0,0-4.045-4.045" transform="translate(-76.309 -211.886)" fill="#fff"/></g></g><path d="M171.671,231.853l2.266-2.094,1.933,3.581s-2.241,1.715-3.571.662Z" transform="translate(-101.518 -135.869)" fill="#ff8b7b"/><path d="M169.441,234.883l-1.541,3.276,2.114,1.748,1.846-2.992Z" transform="translate(-99.289 -138.899)" fill="#ff8b7b"/><path d="M177.611,229.562l.373,1.355a1.6,1.6,0,0,1-.591,1.743l-.831.544-2.314-4.059,1.983-.5a1.152,1.152,0,0,1,1.38.918" transform="translate(-103.042 -135.188)" fill="#ff8b7b"/><path d="M171.671,229.6a13.5,13.5,0,0,0,.688-3.3c-.071-.461.4-.385.792-.249a.778.778,0,0,1,.523.706c.033.827.011,2.411-.626,2.514a8.241,8.241,0,0,0-1.377.327" transform="translate(-101.518 -133.616)" fill="#ff8b7b"/><path d="M147.981,231.712a4.447,4.447,0,0,0-2.414-1.39l-.689-.143c-.392-.082-.485.012-.535.118l-.2.306-.4.611c-.273.406-.541.814-.821,1.211-.543.8-1.112,1.584-1.686,2.324a17.888,17.888,0,0,1-1.76,2c-.057.054-.113.106-.17.157-.21-.232-.417-.47-.618-.72a27.751,27.751,0,0,1-1.673-2.36c-.527-.832-2.235-3.293-2.7-4.181q-.351-.664-.677-1.342l-.315-.676c-.1-.215-.209-.469-.275-.633-.013-.03-.031-.074-.045-.1a3.065,3.065,0,0,0-5.6,2.5c.149.333.264.569.4.844l.4.785q.4.776.835,1.532c.578,1.009,2.427,3.582,3.1,4.549a27.469,27.469,0,0,0,2.251,2.812,19.391,19.391,0,0,0,2.824,2.556l.13.094a2.554,2.554,0,0,0,2.2.386,6.571,6.571,0,0,0,2.283-1.193,11.2,11.2,0,0,0,1.436-1.353,22.163,22.163,0,0,0,2.088-2.753c.6-.928,1.129-1.874,1.627-2.825.242-.48.479-.959.7-1.448l.326-.736.159-.372c.067-.121.091-.254-.188-.564" transform="translate(-75.185 -133.102)" fill="#263238"/><g transform="translate(54.737 97.312)" opacity="0.4"><g clip-path="url(#v)"><path d="M136.86,238.132l-2.248,1.586-.667,1.539c.112.2.218.409.333.611.578,1.009,1.21,1.992,1.888,2.959a27.462,27.462,0,0,0,2.251,2.812q.582.631,1.229,1.234c-1.085-2.589-2.785-10.74-2.785-10.74" transform="translate(-133.945 -238.132)"/></g></g><path d="M90.5,241.874c.177,4.074-.47,3.9-.485,7.059h19.915c1.082-9.648.575-11.131.595-17.534.011-3.606-.553-7.283-4.14-7.658a61.282,61.282,0,0,0-12.669.082,4.767,4.767,0,0,0-4.142,5.413c.8,5.449.366,8.535.926,12.638" transform="translate(-52.941 -132.14)" fill="#263238"/><g transform="translate(43.661 91.314)" opacity="0.9"><g clip-path="url(#w)"><path d="M114.812,223.589a64.756,64.756,0,0,0-7.97-.022c.057.812.679,2.876,5.2,4.628,0,0,1.007-2.19,1.859-1.2,0,0,.681-1.259,2.145,1.056,0,0,2.184-2.335-1.236-4.459" transform="translate(-106.842 -223.455)" fill="#fff"/></g></g><g transform="translate(37.134 97.243)" opacity="0.4"><g clip-path="url(#x)"><path d="M94.605,237.963c.437,3.789-1.984,10.123-3.284,13.185,0-.215-.011-.447-.021-.695-.351-2.561-.311-4.724-.43-7.309Z" transform="translate(-90.87 -237.963)"/></g></g><path d="M109.537,206.01a17.026,17.026,0,0,1-1.406,7.232.456.456,0,0,0,.109.513,8.973,8.973,0,0,0,6.007,2.174c2.676.036,2.523-.8,1.889-1.742a1.1,1.1,0,0,0-.351-.325c-1.831-1.086-1.9-2.54-1.385-3.417Z" transform="translate(-63.923 -121.825)" fill="#ff8b7b"/><g transform="translate(45.587 84.186)" opacity="0.2"><g clip-path="url(#y)"><path d="M111.584,206.013l4.864,4.434a2.059,2.059,0,0,0-.1,1.859,4.067,4.067,0,0,1-2.8-1,6.194,6.194,0,0,1-1.992-4.1c.021-.375.029-.769.029-1.188" transform="translate(-111.555 -206.013)"/></g></g><path d="M108.06,193.375c.216,3.266-.248,3.789,1.412,5.445,2.5,2.49,6.562,2.966,7.137-.346.518-2.982.8-8.381-2.405-9.638a4.51,4.51,0,0,0-6.144,4.539" transform="translate(-63.896 -111.478)" fill="#ff8b7b"/><path d="M121.128,208.286a19.812,19.812,0,0,0-4.4-.5,2.679,2.679,0,0,0,2.7,2.2,1.672,1.672,0,0,0,1.707-1.694" transform="translate(-69.025 -122.874)" fill="#263238"/><path d="M119.982,210.855a2.737,2.737,0,0,1,1.8.635,1.56,1.56,0,0,1-1.052.3,2.7,2.7,0,0,1-1.794-.635,1.55,1.55,0,0,1,1.048-.3" transform="translate(-70.332 -124.689)" fill="#ff5652"/><path d="M121.184,208.256c-.1.242-.2.485-.527.552a14.875,14.875,0,0,1-2.871-.41.935.935,0,0,1-.718-.6,22.76,22.76,0,0,1,4.116.457" transform="translate(-69.229 -122.883)" fill="#fff"/><path d="M124.37,201.576a7.586,7.586,0,0,0,1.27,1.66,1.241,1.241,0,0,1-.986.343Z" transform="translate(-73.547 -119.203)" fill="#ff5652"/><path d="M116.292,196.905a.162.162,0,0,1-.086-.269,1.643,1.643,0,0,1,1.391-.568.162.162,0,0,1,.136.186.165.165,0,0,1-.187.137,1.313,1.313,0,0,0-1.1.462.165.165,0,0,1-.158.051" transform="translate(-68.58 -115.571)" fill="#263238"/><path d="M127.68,198.366a.161.161,0,0,1-.146-.049,1.288,1.288,0,0,0-1.1-.432.162.162,0,0,1-.188-.134.166.166,0,0,1,.134-.19,1.613,1.613,0,0,1,1.393.531.165.165,0,0,1-.094.274" transform="translate(-74.656 -116.821)" fill="#263238"/><path d="M77.077,245.006a2.044,2.044,0,0,0,.068.46,23.794,23.794,0,0,0,1.434,3.805c.3.65.6,1.284.918,1.91a4.033,4.033,0,0,0,1.308.221h4.4l-.437-.977c-.483-1.067-.935-2.138-1.342-3.2a22.3,22.3,0,0,1-.859-2.631,7.888,7.888,0,0,1,.206-1.012c.13-.494.3-1.024.5-1.562.391-1.076.859-2.182,1.351-3.285s1.032-2.2,1.579-3.3,1.12-2.212,1.687-3.248l.02-.036.032-.061a3.065,3.065,0,0,0-5.457-2.8c-.615,1.2-1.168,2.348-1.72,3.538s-1.059,2.388-1.551,3.615-.954,2.48-1.35,3.81c-.2.664-.383,1.351-.534,2.091a11.089,11.089,0,0,0-.256,2.566Z" transform="translate(-45.577 -134.609)" fill="#263238"/><path d="M104.243,202.916a2.979,2.979,0,0,0,1.509,1.589c.875.376,1.356-.481,1.15-1.46-.186-.881-.866-2.139-1.761-2.1s-1.268,1.071-.9,1.966" transform="translate(-61.562 -118.831)" fill="#ff8b7b"/><path d="M118.366,200.124c-.017.284.121.524.31.537s.351-.21.366-.5-.121-.524-.306-.537-.351.21-.369.5" transform="translate(-69.995 -118.049)" fill="#2e353a"/><path d="M126.282,200.591c-.018.284.121.525.306.537s.351-.21.369-.5-.121-.524-.306-.536-.355.209-.369.5" transform="translate(-74.676 -118.326)" fill="#2e353a"/><path d="M101.2,71.621H72.1a4.045,4.045,0,0,0-4.045,4.045V97.783a4.045,4.045,0,0,0,4.045,4.045h21.97a7.148,7.148,0,0,0,7.092,6.278c.162,0,.32-.013.479-.024a16.908,16.908,0,0,1-2.672-6.254H101.2a4.045,4.045,0,0,0,4.045-4.045V75.666a4.045,4.045,0,0,0-4.045-4.045" transform="translate(-40.245 -42.353)" fill="#407bff"/><g transform="translate(27.811 29.268)" opacity="0.4"><g clip-path="url(#u)"><path d="M101.2,71.621H72.1a4.045,4.045,0,0,0-4.045,4.045V97.783a4.045,4.045,0,0,0,4.045,4.045h21.97a7.148,7.148,0,0,0,7.092,6.278c.162,0,.32-.013.479-.024a16.908,16.908,0,0,1-2.672-6.254H101.2a4.045,4.045,0,0,0,4.045-4.045V75.666a4.045,4.045,0,0,0-4.045-4.045" transform="translate(-68.056 -71.621)" fill="#fff"/></g></g><path d="M124.013,119.4a50.875,50.875,0,0,1,.018-7.136c.252-4.185-1-8.707-1.942-9.482-1.36-1.12-2.626-2.179-3.077-.767a13.308,13.308,0,0,0-.321,3.674A68.441,68.441,0,0,0,119.874,116c.137.746.475,3.4.475,3.4Z" transform="translate(-70.186 -59.926)" fill="#118de5"/><path d="M102.252,101.221a1.576,1.576,0,0,0-1.137-1.277c-1.025-.274-2.787-.719-4.4-1.007a41.142,41.142,0,0,0-5.7-.521c-1.209-.049-2.4-.013-3.344.04a1.664,1.664,0,0,0-.333.058,1.578,1.578,0,0,0-1.088,1.946c2.423,8.651,2.925,12.793,3.055,17.2h11.826c.55-4,1.635-7.278,1.733-9.629a27.706,27.706,0,0,0-.611-6.81" transform="translate(-50.968 -58.185)" fill="#407bff"/><g transform="translate(35.221 40.208)" opacity="0.8"><g clip-path="url(#aa)"><path d="M102.252,101.221a1.576,1.576,0,0,0-1.137-1.277c-1.025-.274-2.787-.719-4.4-1.007a41.142,41.142,0,0,0-5.7-.521c-1.209-.049-2.4-.013-3.344.04a1.664,1.664,0,0,0-.333.058,1.578,1.578,0,0,0-1.088,1.946c2.423,8.651,2.925,12.793,3.055,17.2h11.826c.55-4,1.635-7.278,1.733-9.629a27.706,27.706,0,0,0-.611-6.81" transform="translate(-86.19 -98.393)" fill="#fff"/></g></g><path d="M106.694,88.3c-.776,1.051-1.347,2.295-.127,3.682a1.673,1.673,0,0,1,.438,1.051c.014.624-.349,1.232-2.384.033-2.95-1.736-2.7-3.7-2.7-3.7,1.551-.47,2.478-3.726,2.837-5.589Z" transform="translate(-60.267 -49.541)" fill="#ffb573"/><g transform="translate(44.616 36.081)" opacity="0.2" style="isolation:isolate"><g clip-path="url(#ab)"><path d="M109.217,89.243c-.228.794.613,2.058,1.25,2.56a5.316,5.316,0,0,1,.521-.836l-1.147-2.674a2.8,2.8,0,0,0-.624.95" transform="translate(-109.179 -88.293)"/></g></g><path d="M124.583,68.475c1.036,1.315-1.3,5.278-1.553,4.451a25.469,25.469,0,0,1-1-5.214c.013-1.773,1.514-.552,2.55.763" transform="translate(-72.165 -39.517)" fill="#263238"/><path d="M106.169,68.911a4.141,4.141,0,0,1,5.668-1.474c2.781,1.611,2.57,6.122,1.549,8.728-1.118,2.9-4.9,3.269-6.861.635-1.315-1.758-1.15-3.035-.917-6.063a4.143,4.143,0,0,1,.561-1.826" transform="translate(-62.357 -39.542)" fill="#ffb573"/><path d="M116.257,79.483c-.022.246.09.46.248.477s.313-.173.339-.418-.089-.46-.248-.477-.3.186-.338.418" transform="translate(-68.747 -46.755)" fill="#263238"/><path d="M116.893,78.979l.608-.113s-.343.417-.608.113" transform="translate(-69.125 -46.638)" fill="#263238"/><path d="M123.836,81.173c-.022.246.089.46.248.477s.313-.173.339-.418-.089-.46-.248-.477-.3.186-.338.418" transform="translate(-73.229 -47.754)" fill="#263238"/><path d="M124.472,80.669l.608-.113s-.343.417-.608.113" transform="translate(-73.607 -47.637)" fill="#263238"/><path d="M120.967,83.85a1.07,1.07,0,0,0,.895-.043,6.544,6.544,0,0,1-.653-1.683Z" transform="translate(-71.534 -48.564)" fill="#ed893e"/><path d="M115.28,85.942a.073.073,0,0,1,.132-.063,1.937,1.937,0,0,0,1.472.977.076.076,0,0,1,.06.081v0a.068.068,0,0,1-.078.058,2.157,2.157,0,0,1-.346-.069,2.054,2.054,0,0,1-1.24-.988" transform="translate(-68.167 -50.761)" fill="#263238"/><path d="M115.988,75.479h0a.144.144,0,0,1,.03-.2,1.977,1.977,0,0,1,1.636-.2.144.144,0,0,1-.089.275,1.667,1.667,0,0,0-1.368.146.14.14,0,0,1-.168,0Z" transform="translate(-68.573 -44.343)" fill="#263238"/><path d="M125.385,77.33a1.137,1.137,0,0,0-.908-.521.145.145,0,0,1-.006-.291,1.443,1.443,0,0,1,1.156.645l0,0a.144.144,0,0,1-.04.2.141.141,0,0,1-.142.012.207.207,0,0,1-.06-.048" transform="translate(-73.522 -45.25)" fill="#263238"/><path d="M108.15,67.322a3.135,3.135,0,0,0-2.174,1.576c-.208.386-1.55,1.232-1.776,1.608-.722,1.194.064,4.605-.275,4.862s-.219-.754-.543-.946a6.351,6.351,0,0,1-.983-.555c-.391-.34-1.824-4.04-.077-6.28a5.972,5.972,0,0,1,3.58-2.3,5.563,5.563,0,0,1,4.151.944c.382.273,1.045,1.024-.017,1.358-.283.089-.3-.139-.6-.214a3.091,3.091,0,0,0-1.291-.048" transform="translate(-60.008 -38.557)" fill="#263238"/><path d="M100.621,71.208a4.418,4.418,0,0,1,3.378-.98,4.126,4.126,0,0,0,1.564-.176,4.363,4.363,0,0,0,1.933-2.61,1.325,1.325,0,0,1,.934-.881,1.151,1.151,0,0,1,.935.414,1.261,1.261,0,0,1-.06,1.242l.156.07a1.412,1.412,0,0,0,.046-1.41,1.338,1.338,0,0,0-1.086-.487,1.477,1.477,0,0,0-1.091,1.013,4.241,4.241,0,0,1-1.834,2.492,4.036,4.036,0,0,1-1.5.162,4.62,4.62,0,0,0-3.5,1.029Z" transform="translate(-59.432 -39.259)" fill="#263238"/><g transform="translate(41.07 27.129)" opacity="0.1"><g clip-path="url(#ac)"><path d="M100.621,71.208a4.418,4.418,0,0,1,3.378-.98,4.126,4.126,0,0,0,1.564-.176,4.363,4.363,0,0,0,1.933-2.61,1.325,1.325,0,0,1,.934-.881,1.151,1.151,0,0,1,.935.414,1.261,1.261,0,0,1-.06,1.242l.156.07a1.412,1.412,0,0,0,.046-1.41,1.338,1.338,0,0,0-1.086-.487,1.477,1.477,0,0,0-1.091,1.013,4.241,4.241,0,0,1-1.834,2.492,4.036,4.036,0,0,1-1.5.162,4.62,4.62,0,0,0-3.5,1.029Z" transform="translate(-100.501 -66.388)" fill="#fff"/></g></g><path d="M102.894,79.731a1,1,0,0,1,1.118-.857c.753.114,1.095,1.127,1.1,1.79-.01.734-.546,1.275-1.207.863a2.232,2.232,0,0,1-.975-1.389,1,1,0,0,1-.031-.408" transform="translate(-60.842 -46.637)" fill="#ffb573"/><path d="M92,97.9c-.162,2.09-2.095,9.993-6.28,10.213a2.671,2.671,0,0,1-1.825-.647s-.013-.009-.018-.013c-3.376-2.032-.724-11.89-.045-12.465A2.317,2.317,0,0,1,87.568,96.1a8.5,8.5,0,0,0,.211-.948c.175-1.07.755-3.551,1.825-3.731.647-.112,1.973-.171,2.36.36s.3,2.661.036,6.118" transform="translate(-48.61 -54.018)" fill="#118de5"/><g transform="translate(43.17 32.237)" opacity="0.2" style="isolation:isolate"><g clip-path="url(#ad)"><path d="M105.642,78.887l.02.186.192,1.812v2.338l.318-1.389a3.153,3.153,0,0,0,.054-1.105L106,78.99Z" transform="translate(-105.642 -78.887)"/></g></g><path d="M99.776,87.283l-.5-3.642,3.034-.024s-.25,2.735-1.01,3.666Z" transform="translate(-58.706 -49.447)" fill="#ffb573"/><path d="M99.807,77.586l2.248.4.243,2.06-3.023.032Z" transform="translate(-58.706 -45.881)" fill="#ffb573"/><g transform="translate(36.173 45.406)" opacity="0.2"><g clip-path="url(#ae)"><path d="M90.393,111.114s-1.818,4.2-1.873,2.538a2.88,2.88,0,0,1,1.873-2.538" transform="translate(-88.519 -111.114)"/></g></g><path d="M348.308,171.232H337.062a1.937,1.937,0,0,0-1.937,1.937v7.244a1.937,1.937,0,0,0,1.937,1.937H340.3l1.444,1.889a1.19,1.19,0,0,0,1.89,0l1.444-1.889h3.234a1.937,1.937,0,0,0,1.937-1.937v-7.244a1.937,1.937,0,0,0-1.937-1.937" transform="translate(-198.177 -101.259)" fill="#407bff"/><g transform="translate(136.948 69.973)" opacity="0.7"><g clip-path="url(#af)"><path d="M348.308,171.232H337.062a1.937,1.937,0,0,0-1.937,1.937v7.244a1.937,1.937,0,0,0,1.937,1.937H340.3l1.444,1.889a1.19,1.19,0,0,0,1.89,0l1.444-1.889h3.234a1.937,1.937,0,0,0,1.937-1.937v-7.244a1.937,1.937,0,0,0-1.937-1.937" transform="translate(-335.125 -171.232)" fill="#fff"/></g></g><path d="M352.425,180.231l-3.6-2.2v1.317h-1.649a3.979,3.979,0,0,0-3.887,4.867,3.986,3.986,0,0,1,3.887-3.108h1.649v1.317Z" transform="translate(-202.946 -105.281)" fill="#118de5"/><path d="M171.6,62.769h8.623a1.485,1.485,0,0,1,1.486,1.485v5.554a1.486,1.486,0,0,1-1.486,1.485h-2.479l-1.107,1.448a.912.912,0,0,1-1.449,0l-1.108-1.448H171.6a1.486,1.486,0,0,1-1.486-1.485V64.254a1.485,1.485,0,0,1,1.486-1.485" transform="translate(-100.598 -37.119)" fill="#407bff"/><g transform="translate(69.517 25.65)" opacity="0.7"><g clip-path="url(#ag)"><path d="M171.6,62.769h8.623a1.485,1.485,0,0,1,1.486,1.485v5.554a1.486,1.486,0,0,1-1.486,1.485h-2.479l-1.107,1.448a.912.912,0,0,1-1.449,0l-1.108-1.448H171.6a1.486,1.486,0,0,1-1.486-1.485V64.254a1.485,1.485,0,0,1,1.486-1.485" transform="translate(-170.115 -62.769)" fill="#fff"/></g></g><path d="M174.974,69.668l2.76-1.684v1.01H179a3.05,3.05,0,0,1,2.981,3.733A3.057,3.057,0,0,0,179,70.343h-1.264v1.01Z" transform="translate(-103.471 -40.203)" fill="#118de5"/></g><path d="M59.4,111.982a2.1,2.1,0,0,1-1.247.136,1.4,1.4,0,0,1-.631-.3,2.259,2.259,0,0,1-2.588-.3s-.444,1.364-2.394.992c-.194,1.436-2.11,1.908-2.11,1.908-.956-.58-.94.469-.673,1.425s.6.64.673.871.267,1.525.267,1.525a2.246,2.246,0,0,1-1.825-.818,2.18,2.18,0,0,1-.347-2.033s-.967-.006-1.408-2.2.992-2.819.992-2.819-1.044-2.783.728-3.81a3.459,3.459,0,0,1,3.58.336,2.984,2.984,0,0,1,2.552-1.525,2.582,2.582,0,0,1,2.588,1.825c3.546-.692,3.049,4.308,1.844,4.788" transform="translate(31.151 28.102)" fill="#2c294f"/></g></svg>