<svg xmlns="http://www.w3.org/2000/svg" width="141.102" height="140.754" viewBox="0 0 141.102 140.754"><g transform="translate(-134.898 -111.525)"><g transform="translate(-93.204 -3837.205)"><path d="M248.673,4184.24l-9.763,17.433,8.717,3.138,3.487-5.929Z" transform="translate(-5.928 -118.993)" fill="#cee0fa" opacity="0.5"/><path d="M255.543,3978.962h0c.021,1.232.023,2.163-.022,2.736h-.188c0,.027-.006.054-.009.082h0a2.932,2.932,0,0,1-2.908,2.56h-5.177l-.082.33-.161.65,13.385,24.744h2.848v-28.283h0v28.283h-2.847l1.374,2.538h1.474v2.722l1.74,3.215v.009l6.6,12.2v-30.311h29.656l2-3.693H269.965v3.693h0v-3.693h10.875v-17.781h0v17.781h22.385l.611-1.129h0l6.7-12.394h0l4.588-8.479H304.934a1.507,1.507,0,0,1,.255.785,4.883,4.883,0,0,1-1.18,2.624h0a8.176,8.176,0,0,0-1.081,1.91,4.884,4.884,0,0,0-.018,3.161h0a4.887,4.887,0,0,1,.018-3.161,8.191,8.191,0,0,1,1.082-1.91h0a4.886,4.886,0,0,0,1.18-2.624,1.5,1.5,0,0,0-.255-.785H255.464c.014.948.032,1.829.048,2.623h0v0h0C255.524,3977.941,255.535,3978.474,255.543,3978.962Zm17.248,94.11h0v2.37H307.14l-1.283-2.37h0l-4.933-9.116h0l-.308-.569h0l-8.55-15.8h-5.18a7.9,7.9,0,0,0-7.725,9.572,7.9,7.9,0,0,1,7.725-9.572h5.18l-.308-.569h0l-2.236-4.131h-2.636a8.467,8.467,0,0,1-6.783-3.4l.3-.555a7.883,7.883,0,0,1-.442-8.317,7.883,7.883,0,0,0,.442,8.317h0l0,0-.3.551a8.464,8.464,0,0,0,6.783,3.4h2.636l-.308-.569h0l-5.322-9.834,3.229-5.965v0l.307-.569h-.543a8.459,8.459,0,0,0-6.579,3.143,8.459,8.459,0,0,1,6.579-3.143h.543l2.236-4.131h-2.779a8.488,8.488,0,0,1-8.1-5.992,8.488,8.488,0,0,0,8.1,5.992h2.779l.308-.569h0l8.551-15.8H286.887A7.9,7.9,0,0,0,285.4,4021.1a7.9,7.9,0,0,1,1.485-15.664h11.638l.307-.568h0l2.4-4.43H271.573v30.311l.936,1.729-.936,1.729v38.867h0v-38.867l-6.6,12.2h0l-1.742,3.219h0L251.284,4071.7h0l-2.025,3.743H272.79ZM250.927,4088.5h-2.209l-.037-2.5h0l-.078-5.134h-2.278l2.856-5.279h58.036l7.614,14.069C296.688,4088.93,274.665,4088.5,250.927,4088.5Zm42.053-2.149v.144h5.04v-.144Zm-20.185-10.909Zm-9.569-60.12-1.474-2.722h1.474Z" transform="translate(-9.996 -4.086)" fill="#cee0fa" fill-rule="evenodd" opacity="0.5"/><path d="M261.773,4185.01l-2.789,9.066h56.834l-4.881-9.066Z" transform="translate(-16.938 -119.415)" fill="#e4effc" opacity="0.5"/><path d="M314.6,4053.378l-5.4,9.988a1.546,1.546,0,0,1-2.722,0l-5.4-9.988a5.914,5.914,0,0,1,5.2-8.728H309.4A5.914,5.914,0,0,1,314.6,4053.378Z" transform="translate(-39.625 -42.43)" fill="#118de5"/><path d="M295.265,4192.171l16.763,6.9a1.546,1.546,0,0,1-.588,2.977H277.914a1.546,1.546,0,0,1-.589-2.977l16.763-6.9A1.556,1.556,0,0,1,295.265,4192.171Z" transform="translate(-26.471 -123.279)" fill="#118de5"/><path d="M316.458,4155.859a2.15,2.15,0,1,1-2.15-2.149A2.149,2.149,0,0,1,316.458,4155.859Z" transform="translate(-46.104 -102.247)" fill="#118de5"/><path d="M316.681,4107.366a1.108,1.108,0,1,1-1.108-1.106A1.11,1.11,0,0,1,316.681,4107.366Z" transform="translate(-47.368 -76.222)" fill="#118de5"/><path d="M316.65,4130.9a1.26,1.26,0,1,1-1.26-1.261A1.257,1.257,0,0,1,316.65,4130.9Z" transform="translate(-47.185 -89.045)" fill="#118de5"/><path d="M284.48,4015.116l21.769-41.526H316.3l-27.127,50.57Z" transform="translate(-30.922 -3.455)" fill="#fff" fill-rule="evenodd" opacity="0.4"/><path d="M278.545,4166.041l26.792-48.561,4.354,8.037-23.778,45.21Z" transform="translate(-27.667 -82.376)" fill="#fff" fill-rule="evenodd" opacity="0.4"/><path d="M297.832,4026.838l28.133-53.248h3.349l-30.142,55.591Z" transform="translate(-38.245 -3.455)" fill="#fff" fill-rule="evenodd" opacity="0.4"/><path d="M300.055,4184.756l22.774-43.536,1.34,2.678-21.1,40.858Z" transform="translate(-39.465 -95.397)" fill="#fff" fill-rule="evenodd" opacity="0.4"/><path d="M304.949,4223.02H231.465a3.364,3.364,0,0,0,0,6.728h73.483a3.364,3.364,0,1,0,0-6.728Z" transform="translate(0 -140.262)" fill="#118de5"/><path d="M304.949,3967.29H231.465a3.364,3.364,0,0,0,0,6.728h73.483a3.364,3.364,0,1,0,0-6.728Z" transform="translate(0)" fill="#118de5"/><path d="M239.231,3982.12l4.689,8.709,8.373.669v-9.378Z" transform="translate(-6.104 -8.134)" fill="#e7effc"/><path d="M367.645,3976.353c-4.326-.456-5.114-.027-7.057,3.807.485-4.268.057-5.062-3.8-7.053,4.322.452,5.113.027,7.053-3.806C363.383,3973.625,363.808,3974.411,367.645,3976.353Z" transform="translate(-70.579 -1.102)" fill="#fff"/></g><g transform="translate(-530 -509.476)"><path d="M825.351,645.783c-2.141,3.285-7.279,3.729-10.474,1.933a17.283,17.283,0,0,0,2.469-5.22,24.091,24.091,0,0,0,.427-5.425c.03-.814.058-1.628.108-2.441a8.119,8.119,0,0,1,.353-2.376c.8-2.111,4.076-2.011,4.486-1.531C825.548,634.032,827.788,642.045,825.351,645.783Z" transform="translate(-58.198 -7.342)" fill="#17282f"/><path d="M884.1,1221.923l-4.084.157-.021-4.413,4.078-.157Z" transform="translate(-108.874 -464.163)" fill="#f8a58d"/><path d="M855.187,1234.31h4.628a.376.376,0,0,1,.361.277l1.005,3.665a.574.574,0,0,1,.014.266.563.563,0,0,1-.108.242.588.588,0,0,1-.207.169.554.554,0,0,1-.26.055c-1.618-.031-2.4-.124-4.434-.124-1.251,0-4.476.131-6.2.131s-2.042-1.708-1.34-1.859c3.141-.7,4.932-1.649,5.9-2.56A.931.931,0,0,1,855.187,1234.31Z" transform="translate(-84.203 -477.236)" fill="#cee0fa"/><path d="M880,1217.672l.01,2.272,4.083.02-.01-2.454Z" transform="translate(-108.874 -464.163)" opacity="0.2"/><path d="M837.535,844.877c-.665,5.026,1.6,28.868,3.513,39.264,2.539,13.816,4.942,43.772,4.942,43.772l5.5-.328s.665-32.841-1.021-43.976c-.11-14.613.152-40.2.152-40.2Z" transform="translate(-75.739 -173.061)" fill="#17282f"/><path d="M884.107,901.6c0-3.706-2.743-6.633-3.429.445-.434,4.508,1.319,12.067,3.377,17.3C884.05,913.647,884.076,907.26,884.107,901.6Z" transform="translate(-109.351 -215.329)" opacity="0.2"/><path d="M988.672,1221.555l-3.744.1-1.764-5.1,3.749-.1Z" transform="translate(-189.15 -463.339)" fill="#f8a58d"/><path d="M990.463,1234.309h-4.617a.251.251,0,0,0-.107.018.244.244,0,0,0-.09.06.246.246,0,0,0-.065.2l.34,3.665a.887.887,0,0,0,.288.513.9.9,0,0,0,.544.222c1.6-.033,2.357-.126,4.387-.126,1.251,0,2.9.131,4.624.131s1.413-1.706.659-1.859c-3.388-.7-3.916-1.648-5.236-2.56A1.319,1.319,0,0,0,990.463,1234.309Z" transform="translate(-191.032 -477.235)" fill="#cee0fa"/><path d="M983.186,1216.554l.906,2.629,3.821.109-.978-2.842Z" transform="translate(-189.167 -463.339)" opacity="0.2"/><path d="M866.257,842.266s8.486,31.072,12.748,40.239c2.769,14.162,12.68,43.841,12.68,43.841l5.758-.4s-6.282-30.03-10.146-43.978c-2.094-12.957-3.461-34.552-9.424-41.013Z" transform="translate(-98.181 -171.155)" fill="#17282f"/><path d="M779.041,737.445c-.11,2.618-.335,5.157-.644,7.727s-.686,5.115-1.183,7.664l-.194.958-.1.524a4.141,4.141,0,0,1-.3.9,2.952,2.952,0,0,1-.906,1.141,2.712,2.712,0,0,1-1.686.524,3.3,3.3,0,0,1-1.141-.251,4.508,4.508,0,0,1-.717-.377,9.643,9.643,0,0,1-1.785-1.571c-.476-.523-.911-1.047-1.325-1.571a47.25,47.25,0,0,1-4.188-6.633,1.126,1.126,0,0,1,1.853-1.251c1.613,1.906,3.241,3.858,4.947,5.576.419.429.848.843,1.278,1.209a6.2,6.2,0,0,0,1.173.853c.068.026.131.058.136.047s-.031-.037-.215-.052a1.3,1.3,0,0,0-.791.251,1.144,1.144,0,0,0-.351.387l.063-.434.131-.927c.33-2.466.592-4.958.832-7.45s.424-5.016.592-7.476v-.031a2.263,2.263,0,0,1,4.518.251Z" transform="translate(-19.19 -88.739)" fill="#f8a58d"/><path d="M756.354,762.258l-8.895-9.106-1.22-1.664s-2.968-3.587-3.209-3.968c-.279-.44-.558-.412-.713-.3-.242.178-.223.6,0,.987.079.133,1.4,2.183,1.4,2.183a5.722,5.722,0,0,0-.753-.3,2.664,2.664,0,0,0-2.124.532c-.719.49-.877.691-.7.979a.431.431,0,0,0,.32.186.852.852,0,0,0,.59-.141c1.163-.769,1.879-.342,1.879-.342l.159.218a1.951,1.951,0,0,0-1.472.521.815.815,0,0,0-.138.284,1.091,1.091,0,0,0,.075,1.88.453.453,0,0,0,.516,0,.579.579,0,0,0,.128-.258.865.865,0,0,1,.055-.144l.533.547s1.262,1.166,1.753,1.735l7.119,10.078a3.059,3.059,0,1,0,4.687-3.9Z" transform="translate(0 -98.161)" fill="#f8a58d"/><path d="M757.976,768.995a.635.635,0,0,1-.738.062c-.238-.117-.429-.311-.658-.445-.685-.4-1.606-.213-2.271-.646-.092-.06-.188-.164-.149-.267s.16-.117.262-.123l2.622-.159" transform="translate(-10.948 -113.93)" fill="#f8a58d"/><path d="M756.8,767.372a1.047,1.047,0,0,0-.285-.012c-.183,0-.448.01-.775.023l-1.148.053-.332.018a.522.522,0,0,0-.378.112.221.221,0,0,0-.022.248.455.455,0,0,0,.146.158,1.717,1.717,0,0,0,.346.174,10.036,10.036,0,0,0,1.389.273,2,2,0,0,1,.558.2c.161.091.3.206.437.3a.924.924,0,0,0,.757.2c.191-.054.245-.164.239-.164a.769.769,0,0,1-.251.107.9.9,0,0,1-.684-.227c-.13-.095-.264-.216-.436-.32a2.045,2.045,0,0,0-.589-.226,11.64,11.64,0,0,1-1.366-.278,1.608,1.608,0,0,1-.313-.156c-.091-.061-.14-.15-.1-.189s.161-.058.274-.064l.331-.022,1.146-.086c.326-.027.59-.051.772-.071A1.051,1.051,0,0,0,756.8,767.372Z" transform="translate(-10.698 -113.887)" fill="#f68260"/><path d="M743.138,765.234a1.083,1.083,0,0,0-.387-.31.839.839,0,0,0-.523-.032,2.135,2.135,0,0,0-.607.274,3.424,3.424,0,0,1-.614.319,1.1,1.1,0,0,1-.57.059.429.429,0,0,1-.31-.231.252.252,0,0,1-.033-.138c.009,0,.021.046.066.12a.406.406,0,0,0,.289.182,1.091,1.091,0,0,0,.527-.076,3.75,3.75,0,0,0,.595-.318,2.08,2.08,0,0,1,.638-.277.879.879,0,0,1,.57.057.78.78,0,0,1,.3.247C743.128,765.183,743.143,765.232,743.138,765.234Z" transform="translate(-0.008 -111.88)" fill="#f68260"/><path d="M749.777,751.243a2.771,2.771,0,0,1,.266.406l.615.992.631.983a2.724,2.724,0,0,1,.251.415,2.191,2.191,0,0,1-.308-.376c-.178-.242-.412-.584-.656-.971s-.452-.745-.593-1.01A2.161,2.161,0,0,1,749.777,751.243Z" transform="translate(-7.543 -101.346)" fill="#f68260"/><path d="M747.723,770.211a.563.563,0,0,1-.149.03.45.45,0,0,0-.326.186.241.241,0,0,0,0,.239,1.3,1.3,0,0,0,.188.254.543.543,0,0,1,.156.353.463.463,0,0,1-.21.362.524.524,0,0,1-.411.065.657.657,0,0,1-.334-.19,2.13,2.13,0,0,1-.327-.532,1.255,1.255,0,0,1-.111-.405.284.284,0,0,1,.02-.154c.009,0,0,.055.017.149a1.488,1.488,0,0,0,.136.381,2.279,2.279,0,0,0,.33.5.52.52,0,0,0,.626.1.372.372,0,0,0,.169-.284.465.465,0,0,0-.13-.295,1.28,1.28,0,0,1-.193-.277.313.313,0,0,1,.013-.308.471.471,0,0,1,.38-.187A.4.4,0,0,1,747.723,770.211Z" transform="translate(-4.761 -116.098)" fill="#f68260"/><path d="M745.073,772.015s.043.034.063.124a.423.423,0,0,1-.1.363.563.563,0,0,1-.539.147.922.922,0,0,1-.546-.414,1.114,1.114,0,0,1-.173-.662,1.067,1.067,0,0,1,.18-.528,1.007,1.007,0,0,1,.261-.268c.073-.05.119-.067.122-.062a1.765,1.765,0,0,0-.326.366,1.049,1.049,0,0,0-.149.5,1.061,1.061,0,0,0,.166.605.856.856,0,0,0,.485.38.5.5,0,0,0,.469-.108.4.4,0,0,0,.116-.31C745.092,772.061,745.066,772.019,745.073,772.015Z" transform="translate(-2.87 -116.497)" fill="#f68260"/><path d="M759.989,773.443c-.005-.007.059-.069.2-.122a.916.916,0,0,1,.594-.013l-.056.064a2.62,2.62,0,0,1-.129-.3,2.082,2.082,0,0,1-.122-1.129,5.264,5.264,0,0,0,.213,1.1c.037.105.079.205.121.3l.046.1-.1-.036a.96.96,0,0,0-.547-.019C760.07,773.41,760,773.454,759.989,773.443Z" transform="translate(-15.49 -117.45)" fill="#f68260"/><path d="M748.3,763.037c.025,0,.04.2-.092.388s-.319.254-.327.229.134-.114.246-.283S748.274,763.035,748.3,763.037Z" transform="translate(-6.07 -110.523)" fill="#f68260"/><path d="M808.912,728.488c-3.885,1.9-3.277,6.937-3.277,6.937l6.214,4.377s2.272-5.471,1.8-8.094C813.163,729.012,811.791,727.1,808.912,728.488Z" transform="translate(-50.982 -83.278)" fill="#cee0fa"/><path d="M814.763,745.822c.911-1.434,2.476-1.089,4.3.052a4.71,4.71,0,0,1,1.047,1.3,31.435,31.435,0,0,1-1.728,5.759L814,749.848A6.666,6.666,0,0,1,814.763,745.822Z" transform="translate(-57.477 -96.392)" opacity="0.2"/><path d="M814,723.665c1.1,10.114,4.4,17.167,5.3,23.732l17.873-2c-1.01-6.57-1.523-10.869-.267-23.036a3.832,3.832,0,0,0-3.754-4.23c-1.089,0-2.293,0-3.508.079a56.455,56.455,0,0,0-8.115.911c-1.885.387-3.89.932-5.324,1.351A3.047,3.047,0,0,0,814,723.665Z" transform="translate(-57.511 -75.58)" fill="#cee0fa"/><path d="M844.7,719.3s-2.869,3.1,1.408,7.329a24.082,24.082,0,0,1,6.706-8.256Z" transform="translate(-80.673 -75.768)" fill="#fff"/><path d="M852.286,677.65c-.22,2.67-.194,7.513,1.827,9.052a19.619,19.619,0,0,0-6.874,6.7c-3.141-3.141-1.241-5.79-1.241-5.79,2.832-1.047,2.518-3.178,1.78-5.146Z" transform="translate(-81.974 -44.081)" fill="#f8a58d"/><path d="M859.981,680.018a10.99,10.99,0,0,1-.581,4.6c-.361,1.016-1.607,1.6-2.926,1.843a7.28,7.28,0,0,0-.524-2.157Z" transform="translate(-90.161 -45.923)" opacity="0.2"/><path d="M848.03,635.814c-.775,4.324-1.016,6.172-3.476,8.151-3.707,2.974-8.848,1.073-9.377-3.4-.476-4.026.879-10.424,5.345-11.659a5.994,5.994,0,0,1,7.508,6.905Z" transform="translate(-73.927 -5.98)" fill="#f8a58d"/><path d="M843.089,666.907a2.193,2.193,0,0,0-.546-.074c-.087,0-.169-.02-.184-.076a.414.414,0,0,1,.046-.256c.069-.217.143-.433.217-.661a11.063,11.063,0,0,0,.492-1.733,10.825,10.825,0,0,0-.628,1.681c-.074.234-.145.455-.217.665a.507.507,0,0,0-.03.338.212.212,0,0,0,.06.075.219.219,0,0,0,.087.042.6.6,0,0,0,.145.015A2.33,2.33,0,0,0,843.089,666.907Z" transform="translate(-79.478 -33.543)" fill="#334155" stroke="#000" stroke-width="0.318"/><path d="M886.771,665.388a3.2,3.2,0,0,1-1.419,2c-.958.592-1.749-.188-1.743-1.256,0-.963.523-2.429,1.6-2.586a1.44,1.44,0,0,1,1.565,1.843Z" transform="translate(-111.683 -33.096)" fill="#f8a58d"/><path d="M904.575,743.308a5.114,5.114,0,0,0,2.2,4.607c.094-1.811.251-3.843.482-6.178C906.344,740.759,904.789,741.612,904.575,743.308Z" transform="translate(-127.985 -93.628)" opacity="0.2"/><path d="M853.543,835.755l.984,1.508c.079.12-.052.262-.262.283l-18.742,2.094c-.162,0-.3-.047-.325-.146l-.346-1.571c0-.11.11-.22.283-.241l18.1-2.031a.323.323,0,0,1,.3.1Z" transform="translate(-73.744 -167.021)" fill="#17282f"/><path d="M906.928,838.323l.487-.058c.094,0,.162-.068.152-.126l-.461-2.057c0-.058-.1-.1-.2-.089l-.482.058c-.1,0-.168.068-.152.126l.461,2.052C906.74,838.292,906.834,838.334,906.928,838.323Z" transform="translate(-129.313 -167.292)" fill="#cee0fa"/><path d="M841.86,845.631l.482-.052c.1,0,.168-.073.152-.131l-.461-2.052c0-.063-.1-.1-.2-.089l-.487.052c-.094,0-.162.068-.152.131l.461,2.052C841.672,845.6,841.761,845.642,841.86,845.631Z" transform="translate(-78.679 -172.982)" fill="#cee0fa"/><path d="M874.3,841.981l.487-.052c.094,0,.162-.068.152-.131l-.461-2.052c0-.058-.1-.1-.2-.089l-.487.052c-.094,0-.162.068-.152.131l.461,2.052A.208.208,0,0,0,874.3,841.981Z" transform="translate(-103.924 -170.142)" fill="#cee0fa"/><path d="M857.14,662.724c-.042.356-.262.623-.492.6s-.388-.34-.346-.691.262-.623.5-.6S857.2,662.373,857.14,662.724Z" transform="translate(-90.43 -31.927)" fill="#17282f"/><path d="M839.14,660.6c-.042.356-.262.623-.492.6s-.388-.34-.346-.691.262-.623.524-.6S839.182,660.254,839.14,660.6Z" transform="translate(-76.423 -30.278)" fill="#17282f"/><path d="M838.109,658.857l-.827-.345S837.633,659.219,838.109,658.857Z" transform="translate(-75.635 -29.189)" fill="#17282f"/><path d="M837.008,652.177l-.031-.026a.2.2,0,0,1,0-.293,2.095,2.095,0,0,1,1.754-.77.211.211,0,0,1-.052.419,1.644,1.644,0,0,0-1.382.623.215.215,0,0,1-.288.047Z" transform="translate(-75.348 -23.409)" fill="#17282f"/><path d="M857.471,654.342l.046-.018a.245.245,0,0,0,.115-.333,2.518,2.518,0,0,0-1.692-1.563.254.254,0,0,0-.1.5,1.977,1.977,0,0,1,1.327,1.25.259.259,0,0,0,.309.167Z" transform="translate(-89.915 -24.451)" fill="#17282f"/><path d="M905.018,730.562c1.539,1.571,3,3.141,4.424,4.8.712.827,1.429,1.66,2.094,2.539a29.3,29.3,0,0,1,2.005,2.838,8.743,8.743,0,0,1,.524.953,4.525,4.525,0,0,1,.262.785,2.907,2.907,0,0,1,.052.33v.2a2.412,2.412,0,0,1,0,.272v.256l-.026.1c-.136.565-.235,1.136-.414,1.691a20.144,20.144,0,0,1-1.23,3.293,15.437,15.437,0,0,1-1.911,3.016,11.087,11.087,0,0,1-1.267,1.309c-.23.2-.466.4-.723.586-.126.089-.262.178-.4.262s-.262.157-.482.272l-1.136-1.932c0-.026.115-.12.173-.194l.22-.246c.147-.173.288-.356.424-.524a12.181,12.181,0,0,0,.738-1.2,16.107,16.107,0,0,0,1.11-2.618c.131-.471.278-.927.377-1.414s.209-.953.288-1.435.136-.979.209-1.466v.131a.614.614,0,0,0,0,.1v.162a2.935,2.935,0,0,0-.288-.445c-.523-.717-1.183-1.529-1.853-2.3s-1.372-1.571-2.094-2.34l-4.319-4.638Z" transform="translate(-125.82 -85.253)" fill="#f8a58d"/><path d="M916.435,828.478l-3.141,2.916-2.036-3.314s1.958-1.408,3.717-.88Z" transform="translate(-133.197 -160.358)" fill="#f8a58d"/><path d="M904.929,835.42l-1.047-1.094a1.1,1.1,0,0,1,.031-1.544l1.34-1.314,2.031,3.34-.874.717a1.1,1.1,0,0,1-1.482-.1Z" transform="translate(-127.223 -163.771)" fill="#f8a58d"/><path d="M884.42,720.558c-.241,1.869,4.738,7.329,4.738,7.329l4.659-5.832s-2.172-3.047-3.832-3.738C887.321,717.192,884.693,718.427,884.42,720.558Z" transform="translate(-112.308 -75.395)" fill="#cee0fa"/><path d="M856.187,660.976l-.827-.345S855.721,661.348,856.187,660.976Z" transform="translate(-89.702 -30.837)" fill="#17282f"/><path d="M872.275,632c-.116,1.585.787,2.952,1.3,4.45.418,1.231.535,4.246,0,5.235-1.3,2.413-2.566,2.442-4.711,3.3a10.874,10.874,0,0,1-6.795-.434c-.112-.045,9.6-9.544,2.678-21.157-.031-.052,2.1-.27,4.5,1.608A7.82,7.82,0,0,1,872.275,632Z" transform="translate(-94.92 -1.835)" fill="#17282f"/><path d="M837.745,633.563c-1.72-.206-1.374-4.166-1.374-4.166s-2.852-.858-3.844-2.969a6.672,6.672,0,0,0,1.686,2.632c.179.14-5.669-1.1-5.74-5.7,0,0-1.35,4.388-4.146,5.015-.134.03.833-4.038,1.8-4.9a8.663,8.663,0,0,1,1.849-1.278,8.5,8.5,0,0,1,6.375-.941c3.574.922,5.54,5,5.648,6.6C840.213,631,838.561,633.661,837.745,633.563Z" transform="translate(-65.544)" fill="#17282f"/><path d="M849.362,681.062a2.628,2.628,0,0,1-1.206,1.929c-.314.124-.925-.558-1.111-1.029s-.081-.952.232-1.076S849.6,679.857,849.362,681.062Z" transform="translate(-83.16 -46.254)" fill="#17282f"/></g></g></svg>